<?xml version="1.0" encoding="UTF-8" standalone="no"?>
<svg width="279.4mm" height="215.9mm"
 viewBox="0 0 3300 2550"
 xmlns="http://www.w3.org/2000/svg" xmlns:xlink="http://www.w3.org/1999/xlink"  version="1.2" baseProfile="tiny">
<defs>
</defs>
<g fill="none" stroke="black" stroke-width="1" fill-rule="evenodd" stroke-linecap="square" stroke-linejoin="bevel" >

<g fill="#ffffff" fill-opacity="1" stroke="none" transform="matrix(1,0,0,1,0,0)"
font-family="Arial" font-size="12" font-weight="400" font-style="normal" 
>
<rect x="0" y="0" width="3300" height="2550"/>
</g>

<g fill="none" stroke="#000000" stroke-opacity="1" stroke-width="1" stroke-linecap="square" stroke-linejoin="bevel" transform="matrix(1,0,0,1,0,0)"
font-family="Arial" font-size="12" font-weight="400" font-style="normal" 
>
</g>

<g fill="#000000" fill-opacity="1" stroke="#000000" stroke-opacity="1" stroke-width="1" stroke-linecap="butt" stroke-linejoin="miter" stroke-miterlimit="2" transform="matrix(1,0,0,1,0,0)"
font-family="Arial" font-size="12" font-weight="400" font-style="normal" 
>
</g>

<g fill="#000000" fill-opacity="1" stroke="#000000" stroke-opacity="1" stroke-width="5" stroke-linecap="round" stroke-linejoin="bevel" transform="matrix(1,0,0,1,0,0)"
font-family="Arial" font-size="12" font-weight="400" font-style="normal" 
>
<polyline fill="none" vector-effect="none" points="693.869,525.238 693.862,524.694 693.842,524.15 693.809,523.607 693.762,523.066 693.702,522.525 693.629,521.986 693.543,521.449 693.443,520.914 693.331,520.382 693.205,519.853 693.066,519.327 692.915,518.804 692.751,518.286 692.574,517.772 692.384,517.262 692.182,516.757 691.968,516.257 691.741,515.762 691.503,515.273 691.252,514.79 690.99,514.314 690.716,513.844 690.431,513.381 690.134,512.925 689.826,512.476 689.508,512.036 689.178,511.603 688.838,511.178 688.488,510.762 688.128,510.354 687.758,509.956 687.378,509.567 686.989,509.187 686.59,508.816 686.183,508.456 685.766,508.106 685.342,507.766 684.909,507.437 684.468,507.118 684.019,506.81 683.563,506.514 683.1,506.228 682.63,505.955 682.154,505.692 681.671,505.442 681.182,505.203 680.688,504.977 680.188,504.762 679.683,504.56 679.173,504.371 678.659,504.194 678.14,504.03 677.618,503.878 677.092,503.74 676.562,503.614 676.03,503.501 675.496,503.402 674.959,503.315 674.42,503.242 673.879,503.182 673.337,503.135 672.794,503.102 672.25,503.082 671.707,503.075 671.163,503.082 670.619,503.102 670.076,503.135 669.534,503.182 668.994,503.242 668.455,503.315 667.918,503.402 667.383,503.501 666.851,503.614 666.322,503.74 665.796,503.878 665.273,504.03 664.755,504.194 664.24,504.371 663.73,504.56 663.225,504.762 662.725,504.977 662.231,505.203 661.742,505.442 661.259,505.692 660.783,505.955 660.313,506.228 659.85,506.514 659.394,506.81 658.945,507.118 658.504,507.437 658.072,507.766 657.647,508.106 657.231,508.456 656.823,508.816 656.425,509.187 656.035,509.567 655.655,509.956 655.285,510.354 654.925,510.762 654.575,511.178 654.235,511.603 653.906,512.036 653.587,512.476 653.279,512.925 652.983,513.381 652.697,513.844 652.423,514.314 652.161,514.79 651.911,515.273 651.672,515.762 651.445,516.257 651.231,516.757 651.029,517.262 650.84,517.772 650.663,518.286 650.498,518.804 650.347,519.327 650.208,519.853 650.083,520.382 649.97,520.914 649.87,521.449 649.784,521.986 649.711,522.525 649.651,523.066 649.604,523.607 649.571,524.15 649.551,524.694 649.544,525.238 649.551,525.782 649.571,526.325 649.604,526.868 649.651,527.41 649.711,527.951 649.784,528.49 649.87,529.027 649.97,529.562 650.083,530.094 650.208,530.623 650.347,531.149 650.498,531.671 650.663,532.19 650.84,532.704 651.029,533.214 651.231,533.719 651.445,534.219 651.672,534.714 651.911,535.202 652.161,535.685 652.423,536.162 652.697,536.632 652.983,537.095 653.279,537.551 653.587,537.999 653.906,538.44 654.235,538.873 654.575,539.298 654.925,539.714 655.285,540.121 655.655,540.52 656.035,540.909 656.425,541.289 656.823,541.659 657.231,542.019 657.647,542.37 658.072,542.71 658.504,543.039 658.945,543.358 659.394,543.665 659.85,543.962 660.313,544.247 660.783,544.521 661.259,544.783 661.742,545.034 662.231,545.272 662.725,545.499 663.225,545.713 663.73,545.915 664.24,546.105 664.755,546.282 665.273,546.446 665.796,546.598 666.322,546.736 666.851,546.862 667.383,546.974 667.918,547.074 668.455,547.16 668.994,547.234 669.534,547.294 670.076,547.34 670.619,547.374 671.163,547.394 671.707,547.4 672.25,547.394 672.794,547.374 673.337,547.34 673.879,547.294 674.42,547.234 674.959,547.16 675.496,547.074 676.03,546.974 676.562,546.862 677.092,546.736 677.618,546.598 678.14,546.446 678.659,546.282 679.173,546.105 679.683,545.915 680.188,545.713 680.688,545.499 681.182,545.272 681.671,545.034 682.154,544.783 682.63,544.521 683.1,544.247 683.563,543.962 684.019,543.665 684.468,543.358 684.909,543.039 685.342,542.71 685.766,542.37 686.183,542.019 686.59,541.659 686.989,541.289 687.378,540.909 687.758,540.52 688.128,540.121 688.488,539.714 688.838,539.298 689.178,538.873 689.508,538.44 689.826,537.999 690.134,537.551 690.431,537.095 690.716,536.632 690.99,536.162 691.252,535.685 691.503,535.202 691.741,534.714 691.968,534.219 692.182,533.719 692.384,533.214 692.574,532.704 692.751,532.19 692.915,531.671 693.066,531.149 693.205,530.623 693.331,530.094 693.443,529.562 693.543,529.027 693.629,528.49 693.702,527.951 693.762,527.41 693.809,526.868 693.842,526.325 693.862,525.782 693.869,525.238 " />
<polyline fill="none" vector-effect="none" points="1512.98,1164.17 1512.97,1163.62 1512.95,1163.08 1512.92,1162.54 1512.87,1161.99 1512.81,1161.45 1512.74,1160.91 1512.65,1160.38 1512.56,1159.84 1512.44,1159.31 1512.32,1158.78 1512.18,1158.25 1512.03,1157.73 1511.86,1157.21 1511.69,1156.7 1511.5,1156.19 1511.29,1155.68 1511.08,1155.18 1510.85,1154.69 1510.61,1154.2 1510.36,1153.72 1510.1,1153.24 1509.83,1152.77 1509.54,1152.31 1509.25,1151.85 1508.94,1151.4 1508.62,1150.96 1508.29,1150.53 1507.95,1150.11 1507.6,1149.69 1507.24,1149.28 1506.87,1148.88 1506.49,1148.49 1506.1,1148.11 1505.7,1147.74 1505.29,1147.38 1504.88,1147.03 1504.45,1146.69 1504.02,1146.36 1503.58,1146.05 1503.13,1145.74 1502.68,1145.44 1502.21,1145.16 1501.74,1144.88 1501.27,1144.62 1500.78,1144.37 1500.29,1144.13 1499.8,1143.9 1499.3,1143.69 1498.79,1143.49 1498.28,1143.3 1497.77,1143.12 1497.25,1142.96 1496.73,1142.81 1496.2,1142.67 1495.67,1142.54 1495.14,1142.43 1494.61,1142.33 1494.07,1142.24 1493.53,1142.17 1492.99,1142.11 1492.45,1142.06 1491.91,1142.03 1491.36,1142.01 1490.82,1142 1490.27,1142.01 1489.73,1142.03 1489.19,1142.06 1488.65,1142.11 1488.11,1142.17 1487.57,1142.24 1487.03,1142.33 1486.49,1142.43 1485.96,1142.54 1485.43,1142.67 1484.91,1142.81 1484.38,1142.96 1483.87,1143.12 1483.35,1143.3 1482.84,1143.49 1482.34,1143.69 1481.84,1143.9 1481.34,1144.13 1480.85,1144.37 1480.37,1144.62 1479.89,1144.88 1479.42,1145.16 1478.96,1145.44 1478.51,1145.74 1478.06,1146.05 1477.62,1146.36 1477.18,1146.69 1476.76,1147.03 1476.34,1147.38 1475.93,1147.74 1475.54,1148.11 1475.15,1148.49 1474.77,1148.88 1474.4,1149.28 1474.04,1149.69 1473.69,1150.11 1473.35,1150.53 1473.02,1150.96 1472.7,1151.4 1472.39,1151.85 1472.09,1152.31 1471.81,1152.77 1471.54,1153.24 1471.27,1153.72 1471.02,1154.2 1470.78,1154.69 1470.56,1155.18 1470.34,1155.68 1470.14,1156.19 1469.95,1156.7 1469.77,1157.21 1469.61,1157.73 1469.46,1158.25 1469.32,1158.78 1469.19,1159.31 1469.08,1159.84 1468.98,1160.38 1468.9,1160.91 1468.82,1161.45 1468.76,1161.99 1468.72,1162.54 1468.68,1163.08 1468.66,1163.62 1468.66,1164.17 1468.66,1164.71 1468.68,1165.25 1468.72,1165.8 1468.76,1166.34 1468.82,1166.88 1468.9,1167.42 1468.98,1167.95 1469.08,1168.49 1469.19,1169.02 1469.32,1169.55 1469.46,1170.08 1469.61,1170.6 1469.77,1171.12 1469.95,1171.63 1470.14,1172.14 1470.34,1172.65 1470.56,1173.15 1470.78,1173.64 1471.02,1174.13 1471.27,1174.61 1471.54,1175.09 1471.81,1175.56 1472.09,1176.02 1472.39,1176.48 1472.7,1176.93 1473.02,1177.37 1473.35,1177.8 1473.69,1178.23 1474.04,1178.64 1474.4,1179.05 1474.77,1179.45 1475.15,1179.84 1475.54,1180.22 1475.93,1180.59 1476.34,1180.95 1476.76,1181.3 1477.18,1181.64 1477.62,1181.97 1478.06,1182.29 1478.51,1182.59 1478.96,1182.89 1479.42,1183.17 1479.89,1183.45 1480.37,1183.71 1480.85,1183.96 1481.34,1184.2 1481.84,1184.43 1482.34,1184.64 1482.84,1184.84 1483.35,1185.03 1483.87,1185.21 1484.38,1185.37 1484.91,1185.53 1485.43,1185.66 1485.96,1185.79 1486.49,1185.9 1487.03,1186 1487.57,1186.09 1488.11,1186.16 1488.65,1186.22 1489.19,1186.27 1489.73,1186.3 1490.27,1186.32 1490.82,1186.33 1491.36,1186.32 1491.91,1186.3 1492.45,1186.27 1492.99,1186.22 1493.53,1186.16 1494.07,1186.09 1494.61,1186 1495.14,1185.9 1495.67,1185.79 1496.2,1185.66 1496.73,1185.53 1497.25,1185.37 1497.77,1185.21 1498.28,1185.03 1498.79,1184.84 1499.3,1184.64 1499.8,1184.43 1500.29,1184.2 1500.78,1183.96 1501.27,1183.71 1501.74,1183.45 1502.21,1183.17 1502.68,1182.89 1503.13,1182.59 1503.58,1182.29 1504.02,1181.97 1504.45,1181.64 1504.88,1181.3 1505.29,1180.95 1505.7,1180.59 1506.1,1180.22 1506.49,1179.84 1506.87,1179.45 1507.24,1179.05 1507.6,1178.64 1507.95,1178.23 1508.29,1177.8 1508.62,1177.37 1508.94,1176.93 1509.25,1176.48 1509.54,1176.02 1509.83,1175.56 1510.1,1175.09 1510.36,1174.61 1510.61,1174.13 1510.85,1173.64 1511.08,1173.15 1511.29,1172.65 1511.5,1172.14 1511.69,1171.63 1511.86,1171.12 1512.03,1170.6 1512.18,1170.08 1512.32,1169.55 1512.44,1169.02 1512.56,1168.49 1512.65,1167.95 1512.74,1167.42 1512.81,1166.88 1512.87,1166.34 1512.92,1165.8 1512.95,1165.25 1512.97,1164.71 1512.98,1164.17 " />
<polyline fill="none" vector-effect="none" points="1419.58,565.045 1419.58,1118.6 " />
<polyline fill="none" vector-effect="none" points="573.469,565.045 1419.58,565.045 " />
<polyline fill="none" vector-effect="none" points="573.469,463.363 573.469,565.045 " />
<polyline fill="none" vector-effect="none" points="601.594,435.238 600.904,435.246 600.214,435.272 599.525,435.314 598.837,435.373 598.151,435.449 597.467,435.542 596.786,435.652 596.107,435.778 595.432,435.921 594.76,436.081 594.093,436.257 593.43,436.449 592.772,436.657 592.119,436.882 591.472,437.122 590.831,437.379 590.197,437.651 589.569,437.938 588.949,438.241 588.336,438.559 587.731,438.892 587.135,439.239 586.547,439.601 585.969,439.978 585.399,440.368 584.84,440.773 584.291,441.191 583.752,441.622 583.223,442.066 582.706,442.524 582.201,442.993 581.707,443.475 581.225,443.969 580.755,444.475 580.297,444.992 579.853,445.521 579.422,446.059 579.004,446.609 578.599,447.168 578.209,447.737 577.832,448.316 577.47,448.904 577.123,449.5 576.79,450.105 576.472,450.718 576.169,451.338 575.882,451.965 575.61,452.6 575.354,453.241 575.113,453.888 574.888,454.541 574.68,455.199 574.488,455.862 574.312,456.529 574.152,457.201 574.009,457.876 573.883,458.555 573.773,459.236 573.68,459.92 573.604,460.606 573.545,461.294 573.503,461.983 573.477,462.673 573.469,463.363 " />
<polyline fill="none" vector-effect="none" points="601.594,435.238 1560.93,435.238 " />
<polyline fill="none" vector-effect="none" points="1589.06,463.363 1589.05,462.673 1589.02,461.983 1588.98,461.294 1588.92,460.606 1588.84,459.92 1588.75,459.236 1588.64,458.555 1588.52,457.876 1588.37,457.201 1588.21,456.529 1588.04,455.862 1587.84,455.199 1587.64,454.541 1587.41,453.888 1587.17,453.241 1586.92,452.6 1586.64,451.965 1586.36,451.338 1586.05,450.718 1585.74,450.105 1585.4,449.5 1585.05,448.904 1584.69,448.316 1584.32,447.737 1583.93,447.168 1583.52,446.609 1583.1,446.059 1582.67,445.521 1582.23,444.992 1581.77,444.475 1581.3,443.969 1580.82,443.475 1580.32,442.993 1579.82,442.524 1579.3,442.066 1578.77,441.622 1578.23,441.191 1577.69,440.773 1577.13,440.368 1576.56,439.978 1575.98,439.601 1575.39,439.239 1574.79,438.892 1574.19,438.559 1573.58,438.241 1572.96,437.938 1572.33,437.651 1571.69,437.379 1571.05,437.122 1570.41,436.882 1569.75,436.657 1569.1,436.449 1568.43,436.257 1567.76,436.081 1567.09,435.921 1566.42,435.778 1565.74,435.652 1565.06,435.542 1564.37,435.449 1563.69,435.373 1563,435.314 1562.31,435.272 1561.62,435.246 1560.93,435.238 " />
<polyline fill="none" vector-effect="none" points="1589.06,463.363 1589.06,1226.04 " />
<polyline fill="none" vector-effect="none" points="1560.93,1254.17 1561.62,1254.16 1562.31,1254.13 1563,1254.09 1563.69,1254.03 1564.37,1253.95 1565.06,1253.86 1565.74,1253.75 1566.42,1253.63 1567.09,1253.48 1567.76,1253.32 1568.43,1253.15 1569.1,1252.95 1569.75,1252.75 1570.41,1252.52 1571.05,1252.28 1571.69,1252.02 1572.33,1251.75 1572.96,1251.47 1573.58,1251.16 1574.19,1250.84 1574.79,1250.51 1575.39,1250.16 1575.98,1249.8 1576.56,1249.43 1577.13,1249.04 1577.69,1248.63 1578.23,1248.21 1578.77,1247.78 1579.3,1247.34 1579.82,1246.88 1580.32,1246.41 1580.82,1245.93 1581.3,1245.43 1581.77,1244.93 1582.23,1244.41 1582.67,1243.88 1583.1,1243.34 1583.52,1242.79 1583.93,1242.24 1584.32,1241.67 1584.69,1241.09 1585.05,1240.5 1585.4,1239.9 1585.74,1239.3 1586.05,1238.69 1586.36,1238.07 1586.64,1237.44 1586.92,1236.8 1587.17,1236.16 1587.41,1235.52 1587.64,1234.86 1587.84,1234.2 1588.04,1233.54 1588.21,1232.87 1588.37,1232.2 1588.52,1231.53 1588.64,1230.85 1588.75,1230.17 1588.84,1229.48 1588.92,1228.8 1588.98,1228.11 1589.02,1227.42 1589.05,1226.73 1589.06,1226.04 " />
<polyline fill="none" vector-effect="none" points="601.594,1254.17 1560.93,1254.17 " />
<polyline fill="none" vector-effect="none" points="573.469,1226.04 573.477,1226.73 573.503,1227.42 573.545,1228.11 573.604,1228.8 573.68,1229.48 573.773,1230.17 573.883,1230.85 574.009,1231.53 574.152,1232.2 574.312,1232.87 574.488,1233.54 574.68,1234.2 574.888,1234.86 575.113,1235.52 575.354,1236.16 575.61,1236.8 575.882,1237.44 576.169,1238.07 576.472,1238.69 576.79,1239.3 577.123,1239.9 577.47,1240.5 577.832,1241.09 578.209,1241.67 578.599,1242.24 579.004,1242.79 579.422,1243.34 579.853,1243.88 580.297,1244.41 580.755,1244.93 581.225,1245.43 581.707,1245.93 582.201,1246.41 582.706,1246.88 583.223,1247.34 583.752,1247.78 584.291,1248.21 584.84,1248.63 585.399,1249.04 585.969,1249.43 586.547,1249.8 587.135,1250.16 587.731,1250.51 588.336,1250.84 588.949,1251.16 589.569,1251.47 590.197,1251.75 590.831,1252.02 591.472,1252.28 592.119,1252.52 592.772,1252.75 593.43,1252.95 594.093,1253.15 594.76,1253.32 595.432,1253.48 596.107,1253.63 596.786,1253.75 597.467,1253.86 598.151,1253.95 598.837,1254.03 599.525,1254.09 600.214,1254.13 600.904,1254.16 601.594,1254.17 " />
<polyline fill="none" vector-effect="none" points="573.469,1118.6 573.469,1226.04 " />
<polyline fill="none" vector-effect="none" points="1306.65,1118.6 573.469,1118.6 " />
<polyline fill="none" vector-effect="none" points="1306.65,1118.6 1306.09,1119.06 1305.54,1119.53 1305,1120.02 1304.48,1120.52 1303.97,1121.03 1303.47,1121.56 1302.98,1122.1 1302.51,1122.65 1302.05,1123.21 1301.61,1123.78 1301.18,1124.36 1300.76,1124.96 1300.36,1125.56 1299.98,1126.17 1299.6,1126.79 1299.25,1127.43 1298.91,1128.06 1298.58,1128.71 1298.27,1129.37 1297.98,1130.03 1297.71,1130.7 1297.45,1131.38 1297.2,1132.06 1296.98,1132.75 1296.77,1133.44 1296.58,1134.14 1296.4,1134.84 1296.24,1135.55 1296.1,1136.26 1295.98,1136.98 1295.88,1137.69 1295.79,1138.41 1295.72,1139.13 1295.67,1139.86 1295.63,1140.58 1295.61,1141.3 1295.62,1142.03 1295.63,1142.75 1295.67,1143.48 1295.72,1144.2 1295.8,1144.92 1295.89,1145.64 1295.99,1146.36 1296.12,1147.07 1296.26,1147.78 1296.42,1148.49 1296.6,1149.19 1296.79,1149.89 1297,1150.58 1297.23,1151.27 1297.48,1151.95 1297.74,1152.63 1298.02,1153.3 1298.31,1153.96 1298.62,1154.61 1298.95,1155.26 1299.29,1155.9 1299.65,1156.53 1300.02,1157.15 1300.41,1157.76 1300.81,1158.36 1301.23,1158.96 1301.66,1159.54 1302.11,1160.11 1302.57,1160.67 1303.04,1161.22 1303.53,1161.75 1304.03,1162.28 1304.54,1162.79 1305.07,1163.29 1305.6,1163.77 1306.15,1164.25 1306.71,1164.71 1307.28,1165.15 1307.87,1165.58 1308.46,1166 1309.06,1166.4 1309.67,1166.79 1310.3,1167.16 1310.93,1167.52 1311.56,1167.86 1312.21,1168.19 1312.87,1168.5 1313.53,1168.79 1314.2,1169.07 1314.88,1169.33 1315.56,1169.57 1316.25,1169.8 1316.94,1170.01 1317.64,1170.2 1318.34,1170.38 1319.05,1170.54 1319.76,1170.68 1320.47,1170.8 1321.19,1170.91 1321.91,1171 1322.63,1171.07 1323.35,1171.12 1324.08,1171.15 1324.8,1171.17 1325.52,1171.17 1326.25,1171.15 1326.97,1171.12 1327.7,1171.07 1328.42,1171 1329.14,1170.91 1329.85,1170.8 1330.57,1170.68 1331.28,1170.54 1331.98,1170.38 1332.69,1170.2 1333.39,1170.01 1334.08,1169.8 1334.77,1169.57 1335.45,1169.33 1336.13,1169.07 1336.79,1168.79 1337.46,1168.5 1338.11,1168.19 1338.76,1167.86 1339.4,1167.52 1340.03,1167.16 1340.65,1166.79 1341.26,1166.4 1341.87,1166 1342.46,1165.58 1343.04,1165.15 1343.61,1164.71 1344.17,1164.25 1344.72,1163.77 1345.26,1163.29 1345.78,1162.79 1346.3,1162.28 1346.8,1161.75 1347.28,1161.22 1347.76,1160.67 1348.22,1160.11 1348.66,1159.54 1349.1,1158.96 1349.51,1158.36 1349.92,1157.76 1350.31,1157.15 1350.68,1156.53 1351.04,1155.9 1351.38,1155.26 1351.71,1154.61 1352.02,1153.96 1352.31,1153.3 1352.59,1152.63 1352.85,1151.95 1353.09,1151.27 1353.32,1150.58 1353.53,1149.89 1353.73,1149.19 1353.9,1148.49 1354.06,1147.78 1354.21,1147.07 1354.33,1146.36 1354.44,1145.64 1354.53,1144.92 1354.6,1144.2 1354.65,1143.48 1354.69,1142.75 1354.71,1142.03 1354.71,1141.3 1354.69,1140.58 1354.66,1139.86 1354.61,1139.13 1354.54,1138.41 1354.45,1137.69 1354.34,1136.98 1354.22,1136.26 1354.08,1135.55 1353.92,1134.84 1353.75,1134.14 1353.56,1133.44 1353.35,1132.75 1353.12,1132.06 1352.88,1131.38 1352.62,1130.7 1352.34,1130.03 1352.05,1129.37 1351.74,1128.71 1351.42,1128.06 1351.08,1127.43 1350.72,1126.79 1350.35,1126.17 1349.96,1125.56 1349.56,1124.96 1349.15,1124.36 1348.72,1123.78 1348.27,1123.21 1347.81,1122.65 1347.34,1122.1 1346.85,1121.56 1346.36,1121.03 1345.84,1120.52 1345.32,1120.02 1344.79,1119.53 1344.24,1119.06 1343.68,1118.6 " />
<polyline fill="none" vector-effect="none" points="1419.58,1118.6 1343.68,1118.6 " />
</g>

<g fill="none" stroke="#000000" stroke-opacity="1" stroke-width="1" stroke-linecap="square" stroke-linejoin="bevel" transform="matrix(1,0,0,1,0,0)"
font-family="Arial" font-size="12" font-weight="400" font-style="normal" 
>
</g>
</g>
</svg>
