<?xml version="1.0" encoding="UTF-8" standalone="no"?>
<svg width="279.4mm" height="215.9mm"
 viewBox="0 0 3300 2550"
 xmlns="http://www.w3.org/2000/svg" xmlns:xlink="http://www.w3.org/1999/xlink"  version="1.2" baseProfile="tiny">
<defs>
</defs>
<g fill="none" stroke="black" stroke-width="1" fill-rule="evenodd" stroke-linecap="square" stroke-linejoin="bevel" >

<g fill="#ffffff" fill-opacity="1" stroke="none" transform="matrix(1,0,0,1,0,0)"
font-family="Arial" font-size="12" font-weight="400" font-style="normal" 
>
<rect x="0" y="0" width="3300" height="2550"/>
</g>

<g fill="none" stroke="#000000" stroke-opacity="1" stroke-width="1" stroke-linecap="square" stroke-linejoin="bevel" transform="matrix(1,0,0,1,0,0)"
font-family="Arial" font-size="12" font-weight="400" font-style="normal" 
>
</g>

<g fill="#000000" fill-opacity="1" stroke="#000000" stroke-opacity="1" stroke-width="1" stroke-linecap="butt" stroke-linejoin="miter" stroke-miterlimit="2" transform="matrix(1,0,0,1,0,0)"
font-family="Arial" font-size="12" font-weight="400" font-style="normal" 
>
</g>

<g fill="#000000" fill-opacity="1" stroke="#000000" stroke-opacity="1" stroke-width="5" stroke-linecap="round" stroke-linejoin="bevel" transform="matrix(1,0,0,1,0,0)"
font-family="Arial" font-size="12" font-weight="400" font-style="normal" 
>
<polyline fill="none" vector-effect="none" points="787.288,598.996 787.282,598.452 787.262,597.909 787.228,597.366 787.182,596.824 787.122,596.283 787.048,595.744 786.962,595.207 786.862,594.673 786.75,594.14 786.624,593.611 786.485,593.085 786.334,592.563 786.17,592.044 785.993,591.53 785.803,591.02 785.601,590.515 785.387,590.015 785.16,589.521 784.922,589.032 784.671,588.549 784.409,588.072 784.135,587.602 783.85,587.139 783.553,586.683 783.245,586.235 782.927,585.794 782.598,585.361 782.258,584.936 781.907,584.52 781.547,584.113 781.177,583.714 780.797,583.325 780.408,582.945 780.009,582.575 779.602,582.215 779.186,581.864 778.761,581.524 778.328,581.195 777.887,580.876 777.439,580.569 776.983,580.272 776.52,579.987 776.05,579.713 775.573,579.451 775.09,579.2 774.601,578.962 774.107,578.735 773.607,578.521 773.102,578.319 772.592,578.129 772.078,577.952 771.559,577.788 771.037,577.637 770.511,577.498 769.982,577.372 769.449,577.26 768.915,577.16 768.378,577.074 767.839,577 767.298,576.94 766.756,576.894 766.213,576.86 765.67,576.84 765.126,576.834 764.582,576.84 764.038,576.86 763.495,576.894 762.953,576.94 762.413,577 761.874,577.074 761.337,577.16 760.802,577.26 760.27,577.372 759.741,577.498 759.215,577.637 758.692,577.788 758.174,577.952 757.659,578.129 757.15,578.319 756.645,578.521 756.145,578.735 755.65,578.962 755.161,579.2 754.678,579.451 754.202,579.713 753.732,579.987 753.269,580.272 752.813,580.569 752.364,580.876 751.924,581.195 751.491,581.524 751.066,581.864 750.65,582.215 750.242,582.575 749.844,582.945 749.455,583.325 749.075,583.714 748.704,584.113 748.344,584.52 747.994,584.936 747.654,585.361 747.325,585.794 747.006,586.235 746.698,586.683 746.402,587.139 746.116,587.602 745.842,588.072 745.58,588.549 745.33,589.032 745.091,589.521 744.865,590.015 744.65,590.515 744.448,591.02 744.259,591.53 744.082,592.044 743.918,592.563 743.766,593.085 743.627,593.611 743.502,594.14 743.389,594.673 743.29,595.207 743.203,595.744 743.13,596.283 743.07,596.824 743.023,597.366 742.99,597.909 742.97,598.452 742.963,598.996 742.97,599.54 742.99,600.084 743.023,600.627 743.07,601.169 743.13,601.709 743.203,602.248 743.29,602.785 743.389,603.32 743.502,603.852 743.627,604.381 743.766,604.907 743.918,605.43 744.082,605.948 744.259,606.463 744.448,606.972 744.65,607.477 744.865,607.977 745.091,608.472 745.33,608.961 745.58,609.444 745.842,609.92 746.116,610.39 746.402,610.853 746.698,611.309 747.006,611.758 747.325,612.198 747.654,612.631 747.994,613.056 748.344,613.472 748.704,613.88 749.075,614.278 749.455,614.667 749.844,615.047 750.242,615.418 750.65,615.778 751.066,616.128 751.491,616.468 751.924,616.797 752.364,617.116 752.813,617.424 753.269,617.72 753.732,618.006 754.202,618.28 754.678,618.542 755.161,618.792 755.65,619.031 756.145,619.257 756.645,619.472 757.15,619.674 757.659,619.863 758.174,620.04 758.692,620.204 759.215,620.356 759.741,620.495 760.27,620.62 760.802,620.733 761.337,620.832 761.874,620.919 762.413,620.992 762.953,621.052 763.495,621.099 764.038,621.132 764.582,621.152 765.126,621.159 765.67,621.152 766.213,621.132 766.756,621.099 767.298,621.052 767.839,620.992 768.378,620.919 768.915,620.832 769.449,620.733 769.982,620.62 770.511,620.495 771.037,620.356 771.559,620.204 772.078,620.04 772.592,619.863 773.102,619.674 773.607,619.472 774.107,619.257 774.601,619.031 775.09,618.792 775.573,618.542 776.05,618.28 776.52,618.006 776.983,617.72 777.439,617.424 777.887,617.116 778.328,616.797 778.761,616.468 779.186,616.128 779.602,615.778 780.009,615.418 780.408,615.047 780.797,614.667 781.177,614.278 781.547,613.88 781.907,613.472 782.258,613.056 782.598,612.631 782.927,612.198 783.245,611.758 783.553,611.309 783.85,610.853 784.135,610.39 784.409,609.92 784.671,609.444 784.922,608.961 785.16,608.472 785.387,607.977 785.601,607.477 785.803,606.972 785.993,606.463 786.17,605.948 786.334,605.43 786.485,604.907 786.624,604.381 786.75,603.852 786.862,603.32 786.962,602.785 787.048,602.248 787.122,601.709 787.182,601.169 787.228,600.627 787.262,600.084 787.282,599.54 787.288,598.996 " />
<polyline fill="none" vector-effect="none" points="1606.4,1237.92 1606.39,1237.38 1606.37,1236.84 1606.34,1236.29 1606.29,1235.75 1606.23,1235.21 1606.16,1234.67 1606.07,1234.13 1605.97,1233.6 1605.86,1233.07 1605.74,1232.54 1605.6,1232.01 1605.45,1231.49 1605.28,1230.97 1605.1,1230.46 1604.92,1229.95 1604.71,1229.44 1604.5,1228.94 1604.27,1228.45 1604.03,1227.96 1603.78,1227.48 1603.52,1227 1603.25,1226.53 1602.96,1226.07 1602.67,1225.61 1602.36,1225.16 1602.04,1224.72 1601.71,1224.29 1601.37,1223.86 1601.02,1223.45 1600.66,1223.04 1600.29,1222.64 1599.91,1222.25 1599.52,1221.87 1599.12,1221.5 1598.71,1221.14 1598.3,1220.79 1597.87,1220.45 1597.44,1220.12 1597,1219.8 1596.55,1219.5 1596.09,1219.2 1595.63,1218.91 1595.16,1218.64 1594.68,1218.38 1594.2,1218.13 1593.71,1217.89 1593.22,1217.66 1592.72,1217.45 1592.21,1217.25 1591.7,1217.06 1591.19,1216.88 1590.67,1216.72 1590.15,1216.56 1589.62,1216.43 1589.09,1216.3 1588.56,1216.19 1588.03,1216.09 1587.49,1216 1586.95,1215.93 1586.41,1215.87 1585.87,1215.82 1585.33,1215.79 1584.78,1215.77 1584.24,1215.76 1583.69,1215.77 1583.15,1215.79 1582.61,1215.82 1582.07,1215.87 1581.52,1215.93 1580.99,1216 1580.45,1216.09 1579.91,1216.19 1579.38,1216.3 1578.85,1216.43 1578.33,1216.56 1577.8,1216.72 1577.29,1216.88 1576.77,1217.06 1576.26,1217.25 1575.76,1217.45 1575.26,1217.66 1574.76,1217.89 1574.27,1218.13 1573.79,1218.38 1573.31,1218.64 1572.84,1218.91 1572.38,1219.2 1571.92,1219.5 1571.48,1219.8 1571.04,1220.12 1570.6,1220.45 1570.18,1220.79 1569.76,1221.14 1569.35,1221.5 1568.96,1221.87 1568.57,1222.25 1568.19,1222.64 1567.82,1223.04 1567.46,1223.45 1567.11,1223.86 1566.77,1224.29 1566.44,1224.72 1566.12,1225.16 1565.81,1225.61 1565.51,1226.07 1565.23,1226.53 1564.95,1227 1564.69,1227.48 1564.44,1227.96 1564.2,1228.45 1563.98,1228.94 1563.76,1229.44 1563.56,1229.95 1563.37,1230.46 1563.19,1230.97 1563.03,1231.49 1562.88,1232.01 1562.74,1232.54 1562.61,1233.07 1562.5,1233.6 1562.4,1234.13 1562.31,1234.67 1562.24,1235.21 1562.18,1235.75 1562.14,1236.29 1562.1,1236.84 1562.08,1237.38 1562.08,1237.92 1562.08,1238.47 1562.1,1239.01 1562.14,1239.55 1562.18,1240.1 1562.24,1240.64 1562.31,1241.18 1562.4,1241.71 1562.5,1242.25 1562.61,1242.78 1562.74,1243.31 1562.88,1243.83 1563.03,1244.36 1563.19,1244.88 1563.37,1245.39 1563.56,1245.9 1563.76,1246.41 1563.98,1246.9 1564.2,1247.4 1564.44,1247.89 1564.69,1248.37 1564.95,1248.85 1565.23,1249.32 1565.51,1249.78 1565.81,1250.24 1566.12,1250.69 1566.44,1251.13 1566.77,1251.56 1567.11,1251.98 1567.46,1252.4 1567.82,1252.81 1568.19,1253.21 1568.57,1253.6 1568.96,1253.97 1569.35,1254.35 1569.76,1254.71 1570.18,1255.06 1570.6,1255.4 1571.04,1255.72 1571.48,1256.04 1571.92,1256.35 1572.38,1256.65 1572.84,1256.93 1573.31,1257.21 1573.79,1257.47 1574.27,1257.72 1574.76,1257.96 1575.26,1258.18 1575.76,1258.4 1576.26,1258.6 1576.77,1258.79 1577.29,1258.97 1577.8,1259.13 1578.33,1259.28 1578.85,1259.42 1579.38,1259.55 1579.91,1259.66 1580.45,1259.76 1580.99,1259.85 1581.52,1259.92 1582.07,1259.98 1582.61,1260.03 1583.15,1260.06 1583.69,1260.08 1584.24,1260.09 1584.78,1260.08 1585.33,1260.06 1585.87,1260.03 1586.41,1259.98 1586.95,1259.92 1587.49,1259.85 1588.03,1259.76 1588.56,1259.66 1589.09,1259.55 1589.62,1259.42 1590.15,1259.28 1590.67,1259.13 1591.19,1258.97 1591.7,1258.79 1592.21,1258.6 1592.72,1258.4 1593.22,1258.18 1593.71,1257.96 1594.2,1257.72 1594.68,1257.47 1595.16,1257.21 1595.63,1256.93 1596.09,1256.65 1596.55,1256.35 1597,1256.04 1597.44,1255.72 1597.87,1255.4 1598.3,1255.06 1598.71,1254.71 1599.12,1254.35 1599.52,1253.97 1599.91,1253.6 1600.29,1253.21 1600.66,1252.81 1601.02,1252.4 1601.37,1251.98 1601.71,1251.56 1602.04,1251.13 1602.36,1250.69 1602.67,1250.24 1602.96,1249.78 1603.25,1249.32 1603.52,1248.85 1603.78,1248.37 1604.03,1247.89 1604.27,1247.4 1604.5,1246.9 1604.71,1246.41 1604.92,1245.9 1605.1,1245.39 1605.28,1244.88 1605.45,1244.36 1605.6,1243.83 1605.74,1243.31 1605.86,1242.78 1605.97,1242.25 1606.07,1241.71 1606.16,1241.18 1606.23,1240.64 1606.29,1240.1 1606.34,1239.55 1606.37,1239.01 1606.39,1238.47 1606.4,1237.92 " />
<polyline fill="none" vector-effect="none" points="1512.99,1192.35 1437.1,1192.35 " />
<polyline fill="none" vector-effect="none" points="1512.99,638.803 1512.99,1192.35 " />
<polyline fill="none" vector-effect="none" points="666.888,638.803 1512.99,638.803 " />
<polyline fill="none" vector-effect="none" points="666.888,537.121 666.888,638.803 " />
<polyline fill="none" vector-effect="none" points="695.013,508.996 694.323,509.005 693.633,509.03 692.944,509.072 692.256,509.132 691.57,509.208 690.886,509.301 690.205,509.41 689.526,509.537 688.851,509.68 688.179,509.839 687.512,510.015 686.849,510.207 686.191,510.416 685.538,510.64 684.891,510.881 684.25,511.137 683.616,511.409 682.988,511.697 682.368,511.999 681.755,512.317 681.15,512.65 680.554,512.998 679.966,513.36 679.388,513.736 678.819,514.127 678.259,514.531 677.71,514.949 677.171,515.38 676.643,515.825 676.126,516.282 675.62,516.752 675.126,517.234 674.644,517.728 674.174,518.234 673.717,518.751 673.272,519.279 672.841,519.818 672.423,520.367 672.019,520.927 671.628,521.496 671.252,522.074 670.89,522.662 670.542,523.258 670.209,523.863 669.891,524.476 669.588,525.096 669.301,525.724 669.029,526.358 668.773,526.999 668.532,527.646 668.308,528.299 668.099,528.957 667.907,529.62 667.731,530.287 667.572,530.959 667.429,531.634 667.302,532.313 667.193,532.994 667.1,533.678 667.024,534.364 666.964,535.052 666.922,535.741 666.897,536.431 666.888,537.121 " />
<polyline fill="none" vector-effect="none" points="695.013,508.996 1654.35,508.996 " />
<polyline fill="none" vector-effect="none" points="1682.48,537.121 1682.47,536.431 1682.44,535.741 1682.4,535.052 1682.34,534.364 1682.26,533.678 1682.17,532.994 1682.06,532.313 1681.93,531.634 1681.79,530.959 1681.63,530.287 1681.46,529.62 1681.26,528.957 1681.06,528.299 1680.83,527.646 1680.59,526.999 1680.33,526.358 1680.06,525.724 1679.77,525.096 1679.47,524.476 1679.15,523.863 1678.82,523.258 1678.47,522.662 1678.11,522.074 1677.74,521.496 1677.34,520.927 1676.94,520.367 1676.52,519.818 1676.09,519.279 1675.65,518.751 1675.19,518.234 1674.72,517.728 1674.24,517.234 1673.74,516.752 1673.24,516.282 1672.72,515.825 1672.19,515.38 1671.65,514.949 1671.1,514.531 1670.54,514.127 1669.98,513.736 1669.4,513.36 1668.81,512.998 1668.21,512.65 1667.61,512.317 1667,511.999 1666.38,511.697 1665.75,511.409 1665.11,511.137 1664.47,510.881 1663.83,510.64 1663.17,510.416 1662.51,510.207 1661.85,510.015 1661.18,509.839 1660.51,509.68 1659.84,509.537 1659.16,509.41 1658.48,509.301 1657.79,509.208 1657.11,509.132 1656.42,509.072 1655.73,509.03 1655.04,509.005 1654.35,508.996 " />
<polyline fill="none" vector-effect="none" points="1682.48,537.121 1682.48,1299.8 " />
<polyline fill="none" vector-effect="none" points="1654.35,1327.92 1655.04,1327.92 1655.73,1327.89 1656.42,1327.85 1657.11,1327.79 1657.79,1327.71 1658.48,1327.62 1659.16,1327.51 1659.84,1327.38 1660.51,1327.24 1661.18,1327.08 1661.85,1326.91 1662.51,1326.71 1663.17,1326.5 1663.83,1326.28 1664.47,1326.04 1665.11,1325.78 1665.75,1325.51 1666.38,1325.22 1667,1324.92 1667.61,1324.6 1668.21,1324.27 1668.81,1323.92 1669.4,1323.56 1669.98,1323.18 1670.54,1322.79 1671.1,1322.39 1671.65,1321.97 1672.19,1321.54 1672.72,1321.1 1673.24,1320.64 1673.74,1320.17 1674.24,1319.69 1674.72,1319.19 1675.19,1318.69 1675.65,1318.17 1676.09,1317.64 1676.52,1317.1 1676.94,1316.55 1677.34,1315.99 1677.74,1315.42 1678.11,1314.85 1678.47,1314.26 1678.82,1313.66 1679.15,1313.06 1679.47,1312.44 1679.77,1311.82 1680.06,1311.2 1680.33,1310.56 1680.59,1309.92 1680.83,1309.27 1681.06,1308.62 1681.26,1307.96 1681.46,1307.3 1681.63,1306.63 1681.79,1305.96 1681.93,1305.29 1682.06,1304.61 1682.17,1303.93 1682.26,1303.24 1682.34,1302.56 1682.4,1301.87 1682.44,1301.18 1682.47,1300.49 1682.48,1299.8 " />
<polyline fill="none" vector-effect="none" points="695.013,1327.92 1654.35,1327.92 " />
<polyline fill="none" vector-effect="none" points="666.888,1299.8 666.897,1300.49 666.922,1301.18 666.964,1301.87 667.024,1302.56 667.1,1303.24 667.193,1303.93 667.302,1304.61 667.429,1305.29 667.572,1305.96 667.731,1306.63 667.907,1307.3 668.099,1307.96 668.308,1308.62 668.532,1309.27 668.773,1309.92 669.029,1310.56 669.301,1311.2 669.588,1311.82 669.891,1312.44 670.209,1313.06 670.542,1313.66 670.89,1314.26 671.252,1314.85 671.628,1315.42 672.019,1315.99 672.423,1316.55 672.841,1317.1 673.272,1317.64 673.717,1318.17 674.174,1318.69 674.644,1319.19 675.126,1319.69 675.62,1320.17 676.126,1320.64 676.643,1321.1 677.171,1321.54 677.71,1321.97 678.259,1322.39 678.819,1322.79 679.388,1323.18 679.966,1323.56 680.554,1323.92 681.15,1324.27 681.755,1324.6 682.368,1324.92 682.988,1325.22 683.616,1325.51 684.25,1325.78 684.891,1326.04 685.538,1326.28 686.191,1326.5 686.849,1326.71 687.512,1326.91 688.179,1327.08 688.851,1327.24 689.526,1327.38 690.205,1327.51 690.886,1327.62 691.57,1327.71 692.256,1327.79 692.944,1327.85 693.633,1327.89 694.323,1327.92 695.013,1327.92 " />
<polyline fill="none" vector-effect="none" points="1400.07,1192.35 1399.51,1192.81 1398.96,1193.29 1398.42,1193.78 1397.9,1194.28 1397.39,1194.79 1396.89,1195.32 1396.4,1195.86 1395.93,1196.4 1395.47,1196.97 1395.03,1197.54 1394.6,1198.12 1394.18,1198.71 1393.78,1199.32 1393.39,1199.93 1393.02,1200.55 1392.67,1201.18 1392.33,1201.82 1392,1202.47 1391.69,1203.13 1391.4,1203.79 1391.12,1204.46 1390.87,1205.14 1390.62,1205.82 1390.4,1206.51 1390.19,1207.2 1390,1207.9 1389.82,1208.6 1389.66,1209.31 1389.52,1210.02 1389.4,1210.73 1389.29,1211.45 1389.21,1212.17 1389.14,1212.89 1389.08,1213.61 1389.05,1214.34 1389.03,1215.06 1389.03,1215.79 1389.05,1216.51 1389.09,1217.24 1389.14,1217.96 1389.22,1218.68 1389.31,1219.4 1389.41,1220.11 1389.54,1220.83 1389.68,1221.54 1389.84,1222.25 1390.02,1222.95 1390.21,1223.65 1390.42,1224.34 1390.65,1225.03 1390.89,1225.71 1391.16,1226.39 1391.43,1227.05 1391.73,1227.72 1392.04,1228.37 1392.37,1229.02 1392.71,1229.66 1393.07,1230.29 1393.44,1230.91 1393.83,1231.52 1394.23,1232.12 1394.65,1232.71 1395.08,1233.3 1395.53,1233.87 1395.99,1234.43 1396.46,1234.97 1396.95,1235.51 1397.45,1236.04 1397.96,1236.55 1398.48,1237.05 1399.02,1237.53 1399.57,1238.01 1400.13,1238.47 1400.7,1238.91 1401.28,1239.34 1401.88,1239.76 1402.48,1240.16 1403.09,1240.55 1403.71,1240.92 1404.34,1241.28 1404.98,1241.62 1405.63,1241.94 1406.29,1242.25 1406.95,1242.55 1407.62,1242.82 1408.29,1243.09 1408.98,1243.33 1409.67,1243.56 1410.36,1243.77 1411.06,1243.96 1411.76,1244.14 1412.47,1244.29 1413.18,1244.43 1413.89,1244.56 1414.61,1244.66 1415.33,1244.75 1416.05,1244.82 1416.77,1244.88 1417.5,1244.91 1418.22,1244.93 1418.94,1244.93 1419.67,1244.91 1420.39,1244.88 1421.11,1244.82 1421.84,1244.75 1422.55,1244.66 1423.27,1244.56 1423.99,1244.43 1424.7,1244.29 1425.4,1244.14 1426.11,1243.96 1426.8,1243.77 1427.5,1243.56 1428.19,1243.33 1428.87,1243.09 1429.54,1242.82 1430.21,1242.55 1430.88,1242.25 1431.53,1241.94 1432.18,1241.62 1432.82,1241.28 1433.45,1240.92 1434.07,1240.55 1434.68,1240.16 1435.29,1239.76 1435.88,1239.34 1436.46,1238.91 1437.03,1238.47 1437.59,1238.01 1438.14,1237.53 1438.68,1237.05 1439.2,1236.55 1439.72,1236.04 1440.22,1235.51 1440.7,1234.97 1441.18,1234.43 1441.64,1233.87 1442.08,1233.3 1442.52,1232.71 1442.93,1232.12 1443.34,1231.52 1443.72,1230.91 1444.1,1230.29 1444.46,1229.66 1444.8,1229.02 1445.12,1228.37 1445.43,1227.72 1445.73,1227.05 1446.01,1226.39 1446.27,1225.71 1446.51,1225.03 1446.74,1224.34 1446.95,1223.65 1447.15,1222.95 1447.32,1222.25 1447.48,1221.54 1447.63,1220.83 1447.75,1220.11 1447.86,1219.4 1447.95,1218.68 1448.02,1217.96 1448.07,1217.24 1448.11,1216.51 1448.13,1215.79 1448.13,1215.06 1448.11,1214.34 1448.08,1213.61 1448.03,1212.89 1447.96,1212.17 1447.87,1211.45 1447.76,1210.73 1447.64,1210.02 1447.5,1209.31 1447.34,1208.6 1447.17,1207.9 1446.98,1207.2 1446.77,1206.51 1446.54,1205.82 1446.3,1205.14 1446.04,1204.46 1445.76,1203.79 1445.47,1203.13 1445.16,1202.47 1444.84,1201.82 1444.5,1201.18 1444.14,1200.55 1443.77,1199.93 1443.38,1199.32 1442.98,1198.71 1442.57,1198.12 1442.13,1197.54 1441.69,1196.97 1441.23,1196.4 1440.76,1195.86 1440.27,1195.32 1439.78,1194.79 1439.26,1194.28 1438.74,1193.78 1438.2,1193.29 1437.66,1192.81 1437.1,1192.35 " />
<polyline fill="none" vector-effect="none" points="666.888,1192.35 666.888,1299.8 " />
<polyline fill="none" vector-effect="none" points="1400.07,1192.35 666.888,1192.35 " />
</g>

<g fill="none" stroke="#000000" stroke-opacity="1" stroke-width="1" stroke-linecap="square" stroke-linejoin="bevel" transform="matrix(1,0,0,1,0,0)"
font-family="Arial" font-size="12" font-weight="400" font-style="normal" 
>
</g>
</g>
</svg>
