<?xml version="1.0" encoding="UTF-8" standalone="no"?>
<svg width="279.4mm" height="215.9mm"
 viewBox="0 0 3300 2550"
 xmlns="http://www.w3.org/2000/svg" xmlns:xlink="http://www.w3.org/1999/xlink"  version="1.2" baseProfile="tiny">
<defs>
</defs>
<g fill="none" stroke="black" stroke-width="1" fill-rule="evenodd" stroke-linecap="square" stroke-linejoin="bevel" >

<g fill="#ffffff" fill-opacity="1" stroke="none" transform="matrix(1,0,0,1,0,0)"
font-family="Arial" font-size="12" font-weight="400" font-style="normal" 
>
<rect x="0" y="0" width="3300" height="2550"/>
</g>

<g fill="none" stroke="#000000" stroke-opacity="1" stroke-width="1" stroke-linecap="square" stroke-linejoin="bevel" transform="matrix(1,0,0,1,0,0)"
font-family="Arial" font-size="12" font-weight="400" font-style="normal" 
>
</g>

<g fill="#000000" fill-opacity="1" stroke="#000000" stroke-opacity="1" stroke-width="1" stroke-linecap="butt" stroke-linejoin="miter" stroke-miterlimit="2" transform="matrix(1,0,0,1,0,0)"
font-family="Arial" font-size="12" font-weight="400" font-style="normal" 
>
</g>

<g fill="#000000" fill-opacity="1" stroke="#000000" stroke-opacity="1" stroke-width="5" stroke-linecap="round" stroke-linejoin="bevel" transform="matrix(1,0,0,1,0,0)"
font-family="Arial" font-size="12" font-weight="400" font-style="normal" 
>
<polyline fill="none" vector-effect="none" points="1374.06,856.225 1250.31,856.225 " />
<polyline fill="none" vector-effect="none" points="1250.31,856.225 1250.31,979.975 " />
<polyline fill="none" vector-effect="none" points="1374.06,979.975 1250.31,979.975 " />
<polyline fill="none" vector-effect="none" points="1374.06,856.225 1374.06,979.975 " />
<polyline fill="none" vector-effect="none" points="550.499,1504.17 550.507,1504.86 550.532,1505.55 550.575,1506.24 550.634,1506.93 550.71,1507.61 550.803,1508.3 550.913,1508.98 551.039,1509.66 551.182,1510.33 551.341,1511 551.517,1511.67 551.71,1512.34 551.918,1512.99 552.143,1513.65 552.383,1514.29 552.639,1514.93 552.911,1515.57 553.199,1516.2 553.502,1516.82 553.819,1517.43 554.152,1518.03 554.5,1518.63 554.862,1519.22 555.238,1519.8 555.629,1520.37 556.033,1520.92 556.451,1521.47 556.883,1522.01 557.327,1522.54 557.784,1523.06 558.254,1523.56 558.736,1524.06 559.23,1524.54 559.736,1525.01 560.253,1525.47 560.781,1525.91 561.32,1526.34 561.869,1526.76 562.429,1527.17 562.998,1527.56 563.577,1527.93 564.164,1528.29 564.761,1528.64 565.365,1528.97 565.978,1529.29 566.599,1529.6 567.226,1529.88 567.861,1530.15 568.501,1530.41 569.148,1530.65 569.801,1530.88 570.459,1531.08 571.122,1531.28 571.79,1531.45 572.461,1531.61 573.137,1531.76 573.815,1531.88 574.497,1531.99 575.181,1532.08 575.867,1532.16 576.555,1532.22 577.243,1532.26 577.933,1532.29 578.624,1532.3 " />
<polyline fill="none" vector-effect="none" points="550.499,741.493 550.499,1504.17 " />
<polyline fill="none" vector-effect="none" points="578.624,713.368 577.933,713.377 577.243,713.402 576.555,713.444 575.867,713.504 575.181,713.58 574.497,713.673 573.815,713.782 573.137,713.909 572.461,714.052 571.79,714.211 571.122,714.387 570.459,714.579 569.801,714.788 569.148,715.012 568.501,715.253 567.861,715.509 567.226,715.781 566.599,716.068 565.978,716.371 565.365,716.689 564.761,717.022 564.164,717.37 563.577,717.732 562.998,718.108 562.429,718.499 561.869,718.903 561.32,719.321 560.781,719.752 560.253,720.197 559.736,720.654 559.23,721.124 558.736,721.606 558.254,722.1 557.784,722.606 557.327,723.123 556.883,723.651 556.451,724.19 556.033,724.739 555.629,725.299 555.238,725.868 554.862,726.446 554.5,727.034 554.152,727.63 553.819,728.235 553.502,728.848 553.199,729.468 552.911,730.096 552.639,730.73 552.383,731.371 552.143,732.018 551.918,732.671 551.71,733.329 551.517,733.992 551.341,734.659 551.182,735.331 551.039,736.006 550.913,736.685 550.803,737.366 550.71,738.05 550.634,738.736 550.575,739.424 550.532,740.113 550.507,740.803 550.499,741.493 " />
<polyline fill="none" vector-effect="none" points="578.624,713.368 1537.96,713.368 " />
<polyline fill="none" vector-effect="none" points="1566.09,741.493 1566.08,740.803 1566.05,740.113 1566.01,739.424 1565.95,738.736 1565.87,738.05 1565.78,737.366 1565.67,736.685 1565.55,736.006 1565.4,735.331 1565.24,734.659 1565.07,733.992 1564.87,733.329 1564.67,732.671 1564.44,732.018 1564.2,731.371 1563.94,730.73 1563.67,730.096 1563.39,729.468 1563.08,728.848 1562.76,728.235 1562.43,727.63 1562.08,727.034 1561.72,726.446 1561.35,725.868 1560.96,725.299 1560.55,724.739 1560.13,724.19 1559.7,723.651 1559.26,723.123 1558.8,722.606 1558.33,722.1 1557.85,721.606 1557.35,721.124 1556.85,720.654 1556.33,720.197 1555.8,719.752 1555.26,719.321 1554.71,718.903 1554.16,718.499 1553.59,718.108 1553.01,717.732 1552.42,717.37 1551.82,717.022 1551.22,716.689 1550.61,716.371 1549.99,716.068 1549.36,715.781 1548.72,715.509 1548.08,715.253 1547.44,715.012 1546.78,714.788 1546.12,714.579 1545.46,714.387 1544.79,714.211 1544.12,714.052 1543.45,713.909 1542.77,713.782 1542.09,713.673 1541.4,713.58 1540.72,713.504 1540.03,713.444 1539.34,713.402 1538.65,713.377 1537.96,713.368 " />
<polyline fill="none" vector-effect="none" points="1566.09,741.493 1566.09,1504.17 " />
<polyline fill="none" vector-effect="none" points="1537.96,1532.3 1538.65,1532.29 1539.34,1532.26 1540.03,1532.22 1540.72,1532.16 1541.4,1532.08 1542.09,1531.99 1542.77,1531.88 1543.45,1531.76 1544.12,1531.61 1544.79,1531.45 1545.46,1531.28 1546.12,1531.08 1546.78,1530.88 1547.44,1530.65 1548.08,1530.41 1548.72,1530.15 1549.36,1529.88 1549.99,1529.6 1550.61,1529.29 1551.22,1528.97 1551.82,1528.64 1552.42,1528.29 1553.01,1527.93 1553.59,1527.56 1554.16,1527.17 1554.71,1526.76 1555.26,1526.34 1555.8,1525.91 1556.33,1525.47 1556.85,1525.01 1557.35,1524.54 1557.85,1524.06 1558.33,1523.56 1558.8,1523.06 1559.26,1522.54 1559.7,1522.01 1560.13,1521.47 1560.55,1520.92 1560.96,1520.37 1561.35,1519.8 1561.72,1519.22 1562.08,1518.63 1562.43,1518.03 1562.76,1517.43 1563.08,1516.82 1563.39,1516.2 1563.67,1515.57 1563.94,1514.93 1564.2,1514.29 1564.44,1513.65 1564.67,1512.99 1564.87,1512.34 1565.07,1511.67 1565.24,1511 1565.4,1510.33 1565.55,1509.66 1565.67,1508.98 1565.78,1508.3 1565.87,1507.61 1565.95,1506.93 1566.01,1506.24 1566.05,1505.55 1566.08,1504.86 1566.09,1504.17 " />
<polyline fill="none" vector-effect="none" points="578.624,1532.3 1537.96,1532.3 " />
<polyline fill="none" vector-effect="none" points="1490.01,1442.3 1490,1441.75 1489.98,1441.21 1489.95,1440.67 1489.9,1440.12 1489.84,1439.58 1489.77,1439.04 1489.68,1438.51 1489.58,1437.97 1489.47,1437.44 1489.35,1436.91 1489.21,1436.38 1489.06,1435.86 1488.89,1435.34 1488.71,1434.83 1488.53,1434.32 1488.32,1433.81 1488.11,1433.31 1487.88,1432.82 1487.64,1432.33 1487.39,1431.85 1487.13,1431.37 1486.86,1430.9 1486.57,1430.44 1486.28,1429.98 1485.97,1429.53 1485.65,1429.09 1485.32,1428.66 1484.98,1428.24 1484.63,1427.82 1484.27,1427.41 1483.9,1427.01 1483.52,1426.62 1483.13,1426.24 1482.73,1425.87 1482.32,1425.51 1481.91,1425.16 1481.48,1424.82 1481.05,1424.49 1480.61,1424.18 1480.16,1423.87 1479.7,1423.57 1479.24,1423.29 1478.77,1423.01 1478.3,1422.75 1477.81,1422.5 1477.32,1422.26 1476.83,1422.03 1476.33,1421.82 1475.82,1421.62 1475.31,1421.43 1474.8,1421.25 1474.28,1421.09 1473.76,1420.94 1473.23,1420.8 1472.7,1420.67 1472.17,1420.56 1471.64,1420.46 1471.1,1420.37 1470.56,1420.3 1470.02,1420.24 1469.48,1420.19 1468.94,1420.16 1468.39,1420.14 1467.85,1420.13 1467.3,1420.14 1466.76,1420.16 1466.22,1420.19 1465.68,1420.24 1465.14,1420.3 1464.6,1420.37 1464.06,1420.46 1463.52,1420.56 1462.99,1420.67 1462.46,1420.8 1461.94,1420.94 1461.41,1421.09 1460.9,1421.25 1460.38,1421.43 1459.87,1421.62 1459.37,1421.82 1458.87,1422.03 1458.37,1422.26 1457.88,1422.5 1457.4,1422.75 1456.92,1423.01 1456.45,1423.29 1455.99,1423.57 1455.54,1423.87 1455.09,1424.18 1454.65,1424.49 1454.21,1424.82 1453.79,1425.16 1453.37,1425.51 1452.96,1425.87 1452.57,1426.24 1452.18,1426.62 1451.8,1427.01 1451.43,1427.41 1451.07,1427.82 1450.72,1428.24 1450.38,1428.66 1450.05,1429.09 1449.73,1429.53 1449.42,1429.98 1449.12,1430.44 1448.84,1430.9 1448.56,1431.37 1448.3,1431.85 1448.05,1432.33 1447.81,1432.82 1447.59,1433.31 1447.37,1433.81 1447.17,1434.32 1446.98,1434.83 1446.8,1435.34 1446.64,1435.86 1446.49,1436.38 1446.35,1436.91 1446.22,1437.44 1446.11,1437.97 1446.01,1438.51 1445.93,1439.04 1445.85,1439.58 1445.79,1440.12 1445.75,1440.67 1445.71,1441.21 1445.69,1441.75 1445.69,1442.3 1445.69,1442.84 1445.71,1443.38 1445.75,1443.93 1445.79,1444.47 1445.85,1445.01 1445.93,1445.55 1446.01,1446.08 1446.11,1446.62 1446.22,1447.15 1446.35,1447.68 1446.49,1448.21 1446.64,1448.73 1446.8,1449.25 1446.98,1449.76 1447.17,1450.27 1447.37,1450.78 1447.59,1451.28 1447.81,1451.77 1448.05,1452.26 1448.3,1452.74 1448.56,1453.22 1448.84,1453.69 1449.12,1454.15 1449.42,1454.61 1449.73,1455.06 1450.05,1455.5 1450.38,1455.93 1450.72,1456.36 1451.07,1456.77 1451.43,1457.18 1451.8,1457.58 1452.18,1457.97 1452.57,1458.35 1452.96,1458.72 1453.37,1459.08 1453.79,1459.43 1454.21,1459.77 1454.65,1460.1 1455.09,1460.42 1455.54,1460.72 1455.99,1461.02 1456.45,1461.31 1456.92,1461.58 1457.4,1461.84 1457.88,1462.09 1458.37,1462.33 1458.87,1462.56 1459.37,1462.77 1459.87,1462.97 1460.38,1463.16 1460.9,1463.34 1461.41,1463.5 1461.94,1463.66 1462.46,1463.79 1462.99,1463.92 1463.52,1464.03 1464.06,1464.13 1464.6,1464.22 1465.14,1464.29 1465.68,1464.35 1466.22,1464.4 1466.76,1464.43 1467.3,1464.45 1467.85,1464.46 1468.39,1464.45 1468.94,1464.43 1469.48,1464.4 1470.02,1464.35 1470.56,1464.29 1471.1,1464.22 1471.64,1464.13 1472.17,1464.03 1472.7,1463.92 1473.23,1463.79 1473.76,1463.66 1474.28,1463.5 1474.8,1463.34 1475.31,1463.16 1475.82,1462.97 1476.33,1462.77 1476.83,1462.56 1477.32,1462.33 1477.81,1462.09 1478.3,1461.84 1478.77,1461.58 1479.24,1461.31 1479.7,1461.02 1480.16,1460.72 1480.61,1460.42 1481.05,1460.1 1481.48,1459.77 1481.91,1459.43 1482.32,1459.08 1482.73,1458.72 1483.13,1458.35 1483.52,1457.97 1483.9,1457.58 1484.27,1457.18 1484.63,1456.77 1484.98,1456.36 1485.32,1455.93 1485.65,1455.5 1485.97,1455.06 1486.28,1454.61 1486.57,1454.15 1486.86,1453.69 1487.13,1453.22 1487.39,1452.74 1487.64,1452.26 1487.88,1451.77 1488.11,1451.28 1488.32,1450.78 1488.53,1450.27 1488.71,1449.76 1488.89,1449.25 1489.06,1448.73 1489.21,1448.21 1489.35,1447.68 1489.47,1447.15 1489.58,1446.62 1489.68,1446.08 1489.77,1445.55 1489.84,1445.01 1489.9,1444.47 1489.95,1443.93 1489.98,1443.38 1490,1442.84 1490.01,1442.3 " />
<polyline fill="none" vector-effect="none" points="1227.04,1213.36 1226.99,1209.21 1226.84,1205.08 1226.58,1200.94 1226.23,1196.81 1225.77,1192.7 1225.22,1188.59 1224.56,1184.51 1223.8,1180.43 1222.94,1176.38 1221.98,1172.35 1220.93,1168.35 1219.78,1164.37 1218.52,1160.42 1217.18,1156.51 1215.73,1152.62 1214.2,1148.78 1212.56,1144.97 1210.84,1141.21 1209.02,1137.48 1207.12,1133.81 1205.12,1130.18 1203.03,1126.6 1200.86,1123.07 1198.6,1119.6 1196.26,1116.19 1193.83,1112.83 1191.33,1109.53 1188.74,1106.3 1186.07,1103.13 1183.33,1100.03 1180.51,1097 1177.62,1094.03 1174.65,1091.14 1171.62,1088.32 1168.51,1085.58 1165.35,1082.91 1162.11,1080.32 1158.82,1077.81 1155.46,1075.39 1152.04,1073.04 1148.57,1070.79 1145.05,1068.61 1141.47,1066.53 1137.84,1064.53 1134.16,1062.62 1130.44,1060.81 1126.68,1059.08 1122.87,1057.45 1119.02,1055.91 1115.14,1054.47 1111.23,1053.12 1107.28,1051.87 1103.3,1050.72 1099.29,1049.66 1095.27,1048.71 1091.21,1047.85 1087.14,1047.09 1083.05,1046.43 1078.95,1045.87 1074.83,1045.42 1070.71,1045.06 1066.57,1044.81 1062.43,1044.66 1058.29,1044.61 1054.15,1044.66 1050.01,1044.81 1045.88,1045.06 1041.75,1045.42 1037.64,1045.87 1033.53,1046.43 1029.44,1047.09 1025.37,1047.85 1021.32,1048.71 1017.29,1049.66 1013.28,1050.72 1009.31,1051.87 1005.36,1053.12 1001.44,1054.47 997.56,1055.91 993.714,1057.45 989.908,1059.08 986.142,1060.81 982.42,1062.62 978.744,1064.53 975.115,1066.53 971.537,1068.61 968.011,1070.79 964.54,1073.04 961.124,1075.39 957.768,1077.81 954.472,1080.32 951.238,1082.91 948.069,1085.58 944.966,1088.32 941.932,1091.14 938.968,1094.03 936.075,1097 933.257,1100.03 930.513,1103.13 927.847,1106.3 925.259,1109.53 922.751,1112.83 920.325,1116.19 917.982,1119.6 915.723,1123.07 913.55,1126.6 911.465,1130.18 909.468,1133.81 907.56,1137.48 905.744,1141.21 904.019,1144.97 902.387,1148.78 900.85,1152.62 899.406,1156.51 898.059,1160.42 896.808,1164.37 895.655,1168.35 894.599,1172.35 893.642,1176.38 892.785,1180.43 892.026,1184.51 891.369,1188.59 890.811,1192.7 890.355,1196.81 889.999,1200.94 889.745,1205.08 889.593,1209.21 889.542,1213.36 889.593,1217.5 889.745,1221.64 889.999,1225.77 890.355,1229.9 890.811,1234.01 891.369,1238.12 892.026,1242.21 892.785,1246.28 893.642,1250.33 894.599,1254.36 895.655,1258.36 896.808,1262.34 898.059,1266.29 899.406,1270.21 900.85,1274.09 902.387,1277.93 904.019,1281.74 905.744,1285.51 907.56,1289.23 909.468,1292.9 911.465,1296.53 913.55,1300.11 915.723,1303.64 917.982,1307.11 920.325,1310.52 922.751,1313.88 925.259,1317.18 927.847,1320.41 930.513,1323.58 933.257,1326.68 936.075,1329.72 938.968,1332.68 941.932,1335.57 944.966,1338.39 948.069,1341.13 951.238,1343.8 954.472,1346.39 957.768,1348.9 961.124,1351.32 964.54,1353.67 968.011,1355.92 971.537,1358.1 975.115,1360.18 978.744,1362.18 982.42,1364.09 986.142,1365.9 989.908,1367.63 993.714,1369.26 997.56,1370.8 1001.44,1372.24 1005.36,1373.59 1009.31,1374.84 1013.28,1375.99 1017.29,1377.05 1021.32,1378.01 1025.37,1378.86 1029.44,1379.62 1033.53,1380.28 1037.64,1380.84 1041.75,1381.29 1045.88,1381.65 1050.01,1381.9 1054.15,1382.05 1058.29,1382.11 1062.43,1382.05 1066.57,1381.9 1070.71,1381.65 1074.83,1381.29 1078.95,1380.84 1083.05,1380.28 1087.14,1379.62 1091.21,1378.86 1095.27,1378.01 1099.29,1377.05 1103.3,1375.99 1107.28,1374.84 1111.23,1373.59 1115.14,1372.24 1119.02,1370.8 1122.87,1369.26 1126.68,1367.63 1130.44,1365.9 1134.16,1364.09 1137.84,1362.18 1141.47,1360.18 1145.05,1358.1 1148.57,1355.92 1152.04,1353.67 1155.46,1351.32 1158.82,1348.9 1162.11,1346.39 1165.35,1343.8 1168.51,1341.13 1171.62,1338.39 1174.65,1335.57 1177.62,1332.68 1180.51,1329.72 1183.33,1326.68 1186.07,1323.58 1188.74,1320.41 1191.33,1317.18 1193.83,1313.88 1196.26,1310.52 1198.6,1307.11 1200.86,1303.64 1203.03,1300.11 1205.12,1296.53 1207.12,1292.9 1209.02,1289.23 1210.84,1285.51 1212.56,1281.74 1214.2,1277.93 1215.73,1274.09 1217.18,1270.21 1218.52,1266.29 1219.78,1262.34 1220.93,1258.36 1221.98,1254.36 1222.94,1250.33 1223.8,1246.28 1224.56,1242.21 1225.22,1238.12 1225.77,1234.01 1226.23,1229.9 1226.58,1225.77 1226.84,1221.64 1226.99,1217.5 1227.04,1213.36 " />
<polyline fill="none" vector-effect="none" points="670.899,803.368 670.892,802.824 670.872,802.281 670.839,801.738 670.792,801.196 670.732,800.655 670.659,800.116 670.572,799.579 670.473,799.044 670.36,798.512 670.234,797.983 670.096,797.457 669.944,796.935 669.78,796.416 669.603,795.902 669.414,795.392 669.212,794.887 668.997,794.387 668.771,793.892 668.532,793.404 668.282,792.921 668.019,792.444 667.746,791.974 667.46,791.511 667.164,791.055 666.856,790.607 666.537,790.166 666.208,789.733 665.868,789.308 665.518,788.892 665.157,788.485 664.787,788.086 664.407,787.697 664.018,787.317 663.62,786.947 663.212,786.587 662.796,786.236 662.371,785.896 661.938,785.567 661.497,785.248 661.049,784.941 660.593,784.644 660.13,784.359 659.66,784.085 659.183,783.823 658.701,783.572 658.212,783.333 657.717,783.107 657.217,782.893 656.712,782.691 656.202,782.501 655.688,782.324 655.17,782.16 654.647,782.008 654.121,781.87 653.592,781.744 653.06,781.631 652.525,781.532 651.988,781.446 651.449,781.372 650.908,781.312 650.367,781.266 649.824,781.232 649.28,781.212 648.736,781.206 648.192,781.212 647.649,781.232 647.106,781.266 646.564,781.312 646.023,781.372 645.484,781.446 644.947,781.532 644.412,781.631 643.88,781.744 643.351,781.87 642.825,782.008 642.303,782.16 641.784,782.324 641.27,782.501 640.76,782.691 640.255,782.893 639.755,783.107 639.26,783.333 638.772,783.572 638.289,783.823 637.812,784.085 637.342,784.359 636.879,784.644 636.423,784.941 635.975,785.248 635.534,785.567 635.101,785.896 634.676,786.236 634.26,786.587 633.853,786.947 633.454,787.317 633.065,787.697 632.685,788.086 632.315,788.485 631.954,788.892 631.604,789.308 631.264,789.733 630.935,790.166 630.616,790.607 630.309,791.055 630.012,791.511 629.727,791.974 629.453,792.444 629.191,792.921 628.94,793.404 628.701,793.892 628.475,794.387 628.261,794.887 628.059,795.392 627.869,795.902 627.692,796.416 627.528,796.935 627.376,797.457 627.238,797.983 627.112,798.512 626.999,799.044 626.9,799.579 626.814,800.116 626.74,800.655 626.68,801.196 626.634,801.738 626.6,802.281 626.58,802.824 626.574,803.368 626.58,803.912 626.6,804.456 626.634,804.999 626.68,805.54 626.74,806.081 626.814,806.62 626.9,807.157 626.999,807.692 627.112,808.224 627.238,808.753 627.376,809.279 627.528,809.802 627.692,810.32 627.869,810.834 628.059,811.344 628.261,811.849 628.475,812.349 628.701,812.844 628.94,813.333 629.191,813.815 629.453,814.292 629.727,814.762 630.012,815.225 630.309,815.681 630.616,816.13 630.935,816.57 631.264,817.003 631.604,817.428 631.954,817.844 632.315,818.252 632.685,818.65 633.065,819.039 633.454,819.419 633.853,819.789 634.26,820.15 634.676,820.5 635.101,820.84 635.534,821.169 635.975,821.488 636.423,821.796 636.879,822.092 637.342,822.378 637.812,822.651 638.289,822.914 638.772,823.164 639.26,823.403 639.755,823.629 640.255,823.844 640.76,824.046 641.27,824.235 641.784,824.412 642.303,824.576 642.825,824.728 643.351,824.866 643.88,824.992 644.412,825.105 644.947,825.204 645.484,825.291 646.023,825.364 646.564,825.424 647.106,825.471 647.649,825.504 648.192,825.524 648.736,825.531 649.28,825.524 649.824,825.504 650.367,825.471 650.908,825.424 651.449,825.364 651.988,825.291 652.525,825.204 653.06,825.105 653.592,824.992 654.121,824.866 654.647,824.728 655.17,824.576 655.688,824.412 656.202,824.235 656.712,824.046 657.217,823.844 657.717,823.629 658.212,823.403 658.701,823.164 659.183,822.914 659.66,822.651 660.13,822.378 660.593,822.092 661.049,821.796 661.497,821.488 661.938,821.169 662.371,820.84 662.796,820.5 663.212,820.15 663.62,819.789 664.018,819.419 664.407,819.039 664.787,818.65 665.157,818.252 665.518,817.844 665.868,817.428 666.208,817.003 666.537,816.57 666.856,816.13 667.164,815.681 667.46,815.225 667.746,814.762 668.019,814.292 668.282,813.815 668.532,813.333 668.771,812.844 668.997,812.349 669.212,811.849 669.414,811.344 669.603,810.834 669.78,810.32 669.944,809.802 670.096,809.279 670.234,808.753 670.36,808.224 670.473,807.692 670.572,807.157 670.659,806.62 670.732,806.081 670.792,805.54 670.839,804.999 670.872,804.456 670.892,803.912 670.899,803.368 " />
<polyline fill="none" vector-effect="none" points="729.47,843.175 879.32,843.175 " />
<polyline fill="none" vector-effect="none" points="729.47,993.025 729.47,843.175 " />
<polyline fill="none" vector-effect="none" points="729.47,993.025 879.32,993.025 " />
<polyline fill="none" vector-effect="none" points="879.32,993.025 879.32,843.175 " />
</g>

<g fill="none" stroke="#000000" stroke-opacity="1" stroke-width="1" stroke-linecap="square" stroke-linejoin="bevel" transform="matrix(1,0,0,1,0,0)"
font-family="Arial" font-size="12" font-weight="400" font-style="normal" 
>
</g>
</g>
</svg>
