<?xml version="1.0" encoding="UTF-8" standalone="no"?>
<svg width="279.4mm" height="215.9mm"
 viewBox="0 0 3300 2550"
 xmlns="http://www.w3.org/2000/svg" xmlns:xlink="http://www.w3.org/1999/xlink"  version="1.2" baseProfile="tiny">
<defs>
</defs>
<g fill="none" stroke="black" stroke-width="1" fill-rule="evenodd" stroke-linecap="square" stroke-linejoin="bevel" >

<g fill="#ffffff" fill-opacity="1" stroke="none" transform="matrix(1,0,0,1,0,0)"
font-family="Arial" font-size="12" font-weight="400" font-style="normal" 
>
<rect x="0" y="0" width="3300" height="2550"/>
</g>

<g fill="none" stroke="#000000" stroke-opacity="1" stroke-width="1" stroke-linecap="square" stroke-linejoin="bevel" transform="matrix(1,0,0,1,0,0)"
font-family="Arial" font-size="12" font-weight="400" font-style="normal" 
>
</g>

<g fill="#000000" fill-opacity="1" stroke="#000000" stroke-opacity="1" stroke-width="1" stroke-linecap="butt" stroke-linejoin="miter" stroke-miterlimit="2" transform="matrix(1,0,0,1,0,0)"
font-family="Arial" font-size="12" font-weight="400" font-style="normal" 
>
</g>

<g fill="#000000" fill-opacity="1" stroke="#000000" stroke-opacity="1" stroke-width="5" stroke-linecap="round" stroke-linejoin="bevel" transform="matrix(1,0,0,1,0,0)"
font-family="Arial" font-size="12" font-weight="400" font-style="normal" 
>
<polyline fill="none" vector-effect="none" points="851.223,752.359 851.214,751.634 851.188,750.909 851.143,750.185 851.081,749.462 851.001,748.742 850.903,748.023 850.788,747.307 850.655,746.594 850.505,745.884 850.338,745.179 850.153,744.478 849.951,743.781 849.732,743.09 849.496,742.404 849.243,741.724 848.974,741.051 848.688,740.384 848.386,739.725 848.068,739.073 847.734,738.429 847.384,737.794 847.019,737.167 846.639,736.55 846.243,735.942 845.833,735.344 845.408,734.756 844.969,734.179 844.516,733.613 844.049,733.058 843.568,732.514 843.075,731.983 842.568,731.464 842.049,730.957 841.518,730.464 840.974,729.983 840.42,729.516 839.853,729.063 839.276,728.624 838.688,728.199 838.09,727.789 837.482,727.393 836.865,727.013 836.238,726.648 835.603,726.298 834.959,725.964 834.307,725.646 833.648,725.344 832.981,725.058 832.308,724.789 831.628,724.536 830.942,724.3 830.251,724.081 829.555,723.879 828.853,723.694 828.148,723.527 827.438,723.377 826.725,723.244 826.009,723.129 825.29,723.031 824.57,722.951 823.847,722.889 823.123,722.845 822.398,722.818 821.673,722.809 820.948,722.818 820.223,722.845 819.499,722.889 818.777,722.951 818.056,723.031 817.337,723.129 816.621,723.244 815.908,723.377 815.199,723.527 814.493,723.694 813.792,723.879 813.095,724.081 812.404,724.3 811.718,724.536 811.038,724.789 810.365,725.058 809.698,725.344 809.039,725.646 808.387,725.964 807.743,726.298 807.108,726.648 806.481,727.013 805.864,727.393 805.256,727.789 804.658,728.199 804.07,728.624 803.493,729.063 802.927,729.516 802.372,729.983 801.829,730.464 801.297,730.957 800.778,731.464 800.272,731.983 799.778,732.514 799.298,733.058 798.831,733.613 798.378,734.179 797.938,734.756 797.514,735.344 797.103,735.942 796.708,736.55 796.327,737.167 795.962,737.794 795.612,738.429 795.278,739.073 794.96,739.725 794.658,740.384 794.373,741.051 794.103,741.724 793.851,742.404 793.615,743.09 793.396,743.781 793.194,744.478 793.009,745.179 792.841,745.884 792.691,746.594 792.558,747.307 792.443,748.023 792.345,748.742 792.265,749.462 792.203,750.185 792.159,750.909 792.132,751.634 792.123,752.359 792.132,753.084 792.159,753.809 792.203,754.533 792.265,755.255 792.345,755.976 792.443,756.695 792.558,757.411 792.691,758.124 792.841,758.833 793.009,759.539 793.194,760.24 793.396,760.937 793.615,761.628 793.851,762.314 794.103,762.994 794.373,763.667 794.658,764.334 794.96,764.993 795.278,765.645 795.612,766.289 795.962,766.924 796.327,767.551 796.708,768.168 797.103,768.776 797.514,769.374 797.938,769.962 798.378,770.539 798.831,771.105 799.298,771.66 799.778,772.203 800.272,772.735 800.778,773.254 801.297,773.76 801.829,774.254 802.372,774.734 802.927,775.201 803.493,775.655 804.07,776.094 804.658,776.519 805.256,776.929 805.864,777.324 806.481,777.705 807.108,778.07 807.743,778.42 808.387,778.754 809.039,779.072 809.698,779.374 810.365,779.66 811.038,779.929 811.718,780.182 812.404,780.417 813.095,780.636 813.792,780.838 814.493,781.023 815.199,781.191 815.908,781.341 816.621,781.474 817.337,781.589 818.056,781.687 818.777,781.767 819.499,781.829 820.223,781.873 820.948,781.9 821.673,781.909 822.398,781.9 823.123,781.873 823.847,781.829 824.57,781.767 825.29,781.687 826.009,781.589 826.725,781.474 827.438,781.341 828.148,781.191 828.853,781.023 829.555,780.838 830.251,780.636 830.942,780.417 831.628,780.182 832.308,779.929 832.981,779.66 833.648,779.374 834.307,779.072 834.959,778.754 835.603,778.42 836.238,778.07 836.865,777.705 837.482,777.324 838.09,776.929 838.688,776.519 839.276,776.094 839.853,775.655 840.42,775.201 840.974,774.734 841.518,774.254 842.049,773.76 842.568,773.254 843.075,772.735 843.568,772.203 844.049,771.66 844.516,771.105 844.969,770.539 845.408,769.962 845.833,769.374 846.243,768.776 846.639,768.168 847.019,767.551 847.384,766.924 847.734,766.289 848.068,765.645 848.386,764.993 848.688,764.334 848.974,763.667 849.243,762.994 849.496,762.314 849.732,761.628 849.951,760.937 850.153,760.24 850.338,759.539 850.505,758.833 850.655,758.124 850.788,757.411 850.903,756.695 851.001,755.976 851.081,755.255 851.143,754.533 851.188,753.809 851.214,753.084 851.223,752.359 " />
<polyline fill="none" vector-effect="none" points="1339.02,1165.16 1339.01,1164.43 1338.99,1163.71 1338.94,1162.99 1338.88,1162.26 1338.8,1161.54 1338.7,1160.82 1338.59,1160.11 1338.46,1159.39 1338.31,1158.68 1338.14,1157.98 1337.95,1157.28 1337.75,1156.58 1337.53,1155.89 1337.3,1155.2 1337.04,1154.52 1336.77,1153.85 1336.49,1153.18 1336.19,1152.52 1335.87,1151.87 1335.53,1151.23 1335.18,1150.59 1334.82,1149.97 1334.44,1149.35 1334.04,1148.74 1333.63,1148.14 1333.21,1147.56 1332.77,1146.98 1332.32,1146.41 1331.85,1145.86 1331.37,1145.31 1330.87,1144.78 1330.37,1144.26 1329.85,1143.76 1329.32,1143.26 1328.77,1142.78 1328.22,1142.32 1327.65,1141.86 1327.08,1141.42 1326.49,1141 1325.89,1140.59 1325.28,1140.19 1324.66,1139.81 1324.04,1139.45 1323.4,1139.1 1322.76,1138.76 1322.11,1138.45 1321.45,1138.14 1320.78,1137.86 1320.11,1137.59 1319.43,1137.34 1318.74,1137.1 1318.05,1136.88 1317.35,1136.68 1316.65,1136.49 1315.95,1136.33 1315.24,1136.18 1314.53,1136.04 1313.81,1135.93 1313.09,1135.83 1312.37,1135.75 1311.65,1135.69 1310.92,1135.64 1310.2,1135.62 1309.47,1135.61 1308.75,1135.62 1308.02,1135.64 1307.3,1135.69 1306.58,1135.75 1305.86,1135.83 1305.14,1135.93 1304.42,1136.04 1303.71,1136.18 1303,1136.33 1302.29,1136.49 1301.59,1136.68 1300.9,1136.88 1300.2,1137.1 1299.52,1137.34 1298.84,1137.59 1298.16,1137.86 1297.5,1138.14 1296.84,1138.45 1296.19,1138.76 1295.54,1139.1 1294.91,1139.45 1294.28,1139.81 1293.66,1140.19 1293.06,1140.59 1292.46,1141 1291.87,1141.42 1291.29,1141.86 1290.73,1142.32 1290.17,1142.78 1289.63,1143.26 1289.1,1143.76 1288.58,1144.26 1288.07,1144.78 1287.58,1145.31 1287.1,1145.86 1286.63,1146.41 1286.18,1146.98 1285.74,1147.56 1285.31,1148.14 1284.9,1148.74 1284.51,1149.35 1284.13,1149.97 1283.76,1150.59 1283.41,1151.23 1283.08,1151.87 1282.76,1152.52 1282.46,1153.18 1282.17,1153.85 1281.9,1154.52 1281.65,1155.2 1281.41,1155.89 1281.2,1156.58 1280.99,1157.28 1280.81,1157.98 1280.64,1158.68 1280.49,1159.39 1280.36,1160.11 1280.24,1160.82 1280.15,1161.54 1280.07,1162.26 1280,1162.99 1279.96,1163.71 1279.93,1164.43 1279.92,1165.16 1279.93,1165.88 1279.96,1166.61 1280,1167.33 1280.07,1168.06 1280.15,1168.78 1280.24,1169.49 1280.36,1170.21 1280.49,1170.92 1280.64,1171.63 1280.81,1172.34 1280.99,1173.04 1281.2,1173.74 1281.41,1174.43 1281.65,1175.11 1281.9,1175.79 1282.17,1176.47 1282.46,1177.13 1282.76,1177.79 1283.08,1178.44 1283.41,1179.09 1283.76,1179.72 1284.13,1180.35 1284.51,1180.97 1284.9,1181.58 1285.31,1182.17 1285.74,1182.76 1286.18,1183.34 1286.63,1183.91 1287.1,1184.46 1287.58,1185 1288.07,1185.53 1288.58,1186.05 1289.1,1186.56 1289.63,1187.05 1290.17,1187.53 1290.73,1188 1291.29,1188.45 1291.87,1188.89 1292.46,1189.32 1293.06,1189.73 1293.66,1190.12 1294.28,1190.5 1294.91,1190.87 1295.54,1191.22 1296.19,1191.55 1296.84,1191.87 1297.5,1192.17 1298.16,1192.46 1298.84,1192.73 1299.52,1192.98 1300.2,1193.22 1300.9,1193.44 1301.59,1193.64 1302.29,1193.82 1303,1193.99 1303.71,1194.14 1304.42,1194.27 1305.14,1194.39 1305.86,1194.49 1306.58,1194.57 1307.3,1194.63 1308.02,1194.67 1308.75,1194.7 1309.47,1194.71 1310.2,1194.7 1310.92,1194.67 1311.65,1194.63 1312.37,1194.57 1313.09,1194.49 1313.81,1194.39 1314.53,1194.27 1315.24,1194.14 1315.95,1193.99 1316.65,1193.82 1317.35,1193.64 1318.05,1193.44 1318.74,1193.22 1319.43,1192.98 1320.11,1192.73 1320.78,1192.46 1321.45,1192.17 1322.11,1191.87 1322.76,1191.55 1323.4,1191.22 1324.04,1190.87 1324.66,1190.5 1325.28,1190.12 1325.89,1189.73 1326.49,1189.32 1327.08,1188.89 1327.65,1188.45 1328.22,1188 1328.77,1187.53 1329.32,1187.05 1329.85,1186.56 1330.37,1186.05 1330.87,1185.53 1331.37,1185 1331.85,1184.46 1332.32,1183.91 1332.77,1183.34 1333.21,1182.76 1333.63,1182.17 1334.04,1181.58 1334.44,1180.97 1334.82,1180.35 1335.18,1179.72 1335.53,1179.09 1335.87,1178.44 1336.19,1177.79 1336.49,1177.13 1336.77,1176.47 1337.04,1175.79 1337.3,1175.11 1337.53,1174.43 1337.75,1173.74 1337.95,1173.04 1338.14,1172.34 1338.31,1171.63 1338.46,1170.92 1338.59,1170.21 1338.7,1169.49 1338.8,1168.78 1338.88,1168.06 1338.94,1167.33 1338.99,1166.61 1339.01,1165.88 1339.02,1165.16 " />
<polyline fill="none" vector-effect="none" points="678.18,548.772 678.173,548.228 678.153,547.684 678.12,547.141 678.073,546.599 678.013,546.059 677.94,545.52 677.853,544.983 677.754,544.448 677.641,543.916 677.516,543.387 677.377,542.861 677.225,542.338 677.061,541.82 676.884,541.305 676.695,540.796 676.493,540.291 676.278,539.791 676.052,539.296 675.813,538.807 675.563,538.324 675.301,537.848 675.027,537.378 674.741,536.915 674.445,536.459 674.137,536.01 673.818,535.57 673.489,535.137 673.149,534.712 672.799,534.296 672.439,533.888 672.068,533.49 671.689,533.101 671.299,532.721 670.901,532.35 670.493,531.99 670.077,531.64 669.652,531.3 669.219,530.971 668.779,530.652 668.33,530.344 667.874,530.048 667.411,529.762 666.941,529.488 666.465,529.226 665.982,528.976 665.493,528.737 664.998,528.511 664.499,528.296 663.993,528.094 663.484,527.905 662.969,527.728 662.451,527.564 661.928,527.412 661.402,527.273 660.873,527.148 660.341,527.035 659.806,526.936 659.269,526.849 658.73,526.776 658.19,526.716 657.648,526.669 657.105,526.636 656.561,526.616 656.017,526.609 655.473,526.616 654.93,526.636 654.387,526.669 653.845,526.716 653.304,526.776 652.765,526.849 652.228,526.936 651.694,527.035 651.161,527.148 650.632,527.273 650.106,527.412 649.584,527.564 649.065,527.728 648.551,527.905 648.041,528.094 647.536,528.296 647.036,528.511 646.542,528.737 646.053,528.976 645.57,529.226 645.093,529.488 644.623,529.762 644.16,530.048 643.704,530.344 643.256,530.652 642.815,530.971 642.382,531.3 641.958,531.64 641.541,531.99 641.134,532.35 640.735,532.721 640.346,533.101 639.966,533.49 639.596,533.888 639.236,534.296 638.885,534.712 638.546,535.137 638.216,535.57 637.898,536.01 637.59,536.459 637.293,536.915 637.008,537.378 636.734,537.848 636.472,538.324 636.221,538.807 635.983,539.296 635.756,539.791 635.542,540.291 635.34,540.796 635.15,541.305 634.973,541.82 634.809,542.338 634.658,542.861 634.519,543.387 634.393,543.916 634.281,544.448 634.181,544.983 634.095,545.52 634.021,546.059 633.962,546.599 633.915,547.141 633.881,547.684 633.861,548.228 633.855,548.772 633.861,549.316 633.881,549.859 633.915,550.402 633.962,550.944 634.021,551.485 634.095,552.024 634.181,552.561 634.281,553.095 634.393,553.628 634.519,554.157 634.658,554.683 634.809,555.205 634.973,555.724 635.15,556.238 635.34,556.748 635.542,557.253 635.756,557.753 635.983,558.247 636.221,558.736 636.472,559.219 636.734,559.696 637.008,560.166 637.293,560.629 637.59,561.085 637.898,561.533 638.216,561.974 638.546,562.407 638.885,562.832 639.236,563.248 639.596,563.655 639.966,564.054 640.346,564.443 640.735,564.823 641.134,565.193 641.541,565.553 641.958,565.904 642.382,566.244 642.815,566.573 643.256,566.892 643.704,567.199 644.16,567.496 644.623,567.781 645.093,568.055 645.57,568.317 646.053,568.568 646.542,568.806 647.036,569.033 647.536,569.247 648.041,569.449 648.551,569.639 649.065,569.816 649.584,569.98 650.106,570.131 650.632,570.27 651.161,570.396 651.694,570.508 652.228,570.608 652.765,570.694 653.304,570.768 653.845,570.828 654.387,570.874 654.93,570.908 655.473,570.928 656.017,570.934 656.561,570.928 657.105,570.908 657.648,570.874 658.19,570.828 658.73,570.768 659.269,570.694 659.806,570.608 660.341,570.508 660.873,570.396 661.402,570.27 661.928,570.131 662.451,569.98 662.969,569.816 663.484,569.639 663.993,569.449 664.499,569.247 664.998,569.033 665.493,568.806 665.982,568.568 666.465,568.317 666.941,568.055 667.411,567.781 667.874,567.496 668.33,567.199 668.779,566.892 669.219,566.573 669.652,566.244 670.077,565.904 670.493,565.553 670.901,565.193 671.299,564.823 671.689,564.443 672.068,564.054 672.439,563.655 672.799,563.248 673.149,562.832 673.489,562.407 673.818,561.974 674.137,561.533 674.445,561.085 674.741,560.629 675.027,560.166 675.301,559.696 675.563,559.219 675.813,558.736 676.052,558.247 676.278,557.753 676.493,557.253 676.695,556.748 676.884,556.238 677.061,555.724 677.225,555.205 677.377,554.683 677.516,554.157 677.641,553.628 677.754,553.095 677.853,552.561 677.94,552.024 678.013,551.485 678.073,550.944 678.12,550.402 678.153,549.859 678.173,549.316 678.18,548.772 " />
<polyline fill="none" vector-effect="none" points="1234.32,958.759 1234.27,954.618 1234.12,950.479 1233.87,946.345 1233.51,942.219 1233.05,938.102 1232.5,933.998 1231.84,929.909 1231.08,925.837 1230.22,921.786 1229.27,917.756 1228.21,913.751 1227.06,909.773 1225.81,905.825 1224.46,901.909 1223.02,898.027 1221.48,894.181 1219.85,890.374 1218.12,886.609 1216.3,882.887 1214.4,879.211 1212.4,875.582 1210.31,872.004 1208.14,868.478 1205.88,865.006 1203.54,861.591 1201.11,858.235 1198.61,854.939 1196.02,851.705 1193.35,848.536 1190.61,845.433 1187.79,842.399 1184.9,839.435 1181.93,836.542 1178.9,833.723 1175.8,830.98 1172.63,828.313 1169.39,825.725 1166.1,823.218 1162.74,820.791 1159.33,818.448 1155.85,816.19 1152.33,814.017 1148.75,811.932 1145.12,809.935 1141.45,808.027 1137.72,806.211 1133.96,804.486 1130.15,802.854 1126.31,801.316 1122.42,799.873 1118.51,798.526 1114.56,797.275 1110.58,796.122 1106.58,795.066 1102.55,794.109 1098.49,793.251 1094.42,792.493 1090.33,791.835 1086.23,791.278 1082.11,790.821 1077.99,790.466 1073.85,790.212 1069.71,790.06 1065.57,790.009 1061.43,790.06 1057.29,790.212 1053.16,790.466 1049.03,790.821 1044.92,791.278 1040.81,791.835 1036.72,792.493 1032.65,793.251 1028.6,794.109 1024.57,795.066 1020.57,796.122 1016.59,797.275 1012.64,798.526 1008.72,799.873 1004.84,801.316 1001,802.854 997.189,804.486 993.423,806.211 989.701,808.027 986.025,809.935 982.397,811.932 978.818,814.017 975.292,816.19 971.821,818.448 968.406,820.791 965.049,823.218 961.753,825.725 958.519,828.313 955.35,830.98 952.248,833.723 949.213,836.542 946.249,839.435 943.356,842.399 940.538,845.433 937.794,848.536 935.128,851.705 932.54,854.939 930.032,858.235 927.606,861.591 925.263,865.006 923.004,868.478 920.831,872.004 918.746,875.582 916.749,879.211 914.842,882.887 913.025,886.609 911.3,890.374 909.669,894.181 908.131,898.027 906.688,901.909 905.34,905.825 904.09,909.773 902.936,913.751 901.88,917.756 900.923,921.786 900.066,925.837 899.308,929.909 898.65,933.998 898.092,938.102 897.636,942.219 897.28,946.345 897.026,950.479 896.874,954.618 896.823,958.759 896.874,962.9 897.026,967.039 897.28,971.173 897.636,975.299 898.092,979.416 898.65,983.52 899.308,987.609 900.066,991.68 900.923,995.732 901.88,999.762 902.936,1003.77 904.09,1007.74 905.34,1011.69 906.688,1015.61 908.131,1019.49 909.669,1023.34 911.3,1027.14 913.025,1030.91 914.842,1034.63 916.749,1038.31 918.746,1041.94 920.831,1045.51 923.004,1049.04 925.263,1052.51 927.606,1055.93 930.032,1059.28 932.54,1062.58 935.128,1065.81 937.794,1068.98 940.538,1072.08 943.356,1075.12 946.249,1078.08 949.213,1080.98 952.248,1083.79 955.35,1086.54 958.519,1089.2 961.753,1091.79 965.049,1094.3 968.406,1096.73 971.821,1099.07 975.292,1101.33 978.818,1103.5 982.397,1105.59 986.025,1107.58 989.701,1109.49 993.423,1111.31 997.189,1113.03 1001,1114.66 1004.84,1116.2 1008.72,1117.64 1012.64,1118.99 1016.59,1120.24 1020.57,1121.4 1024.57,1122.45 1028.6,1123.41 1032.65,1124.27 1036.72,1125.02 1040.81,1125.68 1044.92,1126.24 1049.03,1126.7 1053.16,1127.05 1057.29,1127.31 1061.43,1127.46 1065.57,1127.51 1069.71,1127.46 1073.85,1127.31 1077.99,1127.05 1082.11,1126.7 1086.23,1126.24 1090.33,1125.68 1094.42,1125.02 1098.49,1124.27 1102.55,1123.41 1106.58,1122.45 1110.58,1121.4 1114.56,1120.24 1118.51,1118.99 1122.42,1117.64 1126.31,1116.2 1130.15,1114.66 1133.96,1113.03 1137.72,1111.31 1141.45,1109.49 1145.12,1107.58 1148.75,1105.59 1152.33,1103.5 1155.85,1101.33 1159.33,1099.07 1162.74,1096.73 1166.1,1094.3 1169.39,1091.79 1172.63,1089.2 1175.8,1086.54 1178.9,1083.79 1181.93,1080.98 1184.9,1078.08 1187.79,1075.12 1190.61,1072.08 1193.35,1068.98 1196.02,1065.81 1198.61,1062.58 1201.11,1059.28 1203.54,1055.93 1205.88,1052.51 1208.14,1049.04 1210.31,1045.51 1212.4,1041.94 1214.4,1038.31 1216.3,1034.63 1218.12,1030.91 1219.85,1027.14 1221.48,1023.34 1223.02,1019.49 1224.46,1015.61 1225.81,1011.69 1227.06,1007.74 1228.21,1003.77 1229.27,999.762 1230.22,995.732 1231.08,991.68 1231.84,987.609 1232.5,983.52 1233.05,979.416 1233.51,975.299 1233.87,971.173 1234.12,967.039 1234.27,962.9 1234.32,958.759 " />
<polyline fill="none" vector-effect="none" points="1497.29,1187.7 1497.28,1187.16 1497.26,1186.61 1497.23,1186.07 1497.18,1185.53 1497.12,1184.99 1497.05,1184.45 1496.97,1183.91 1496.87,1183.38 1496.75,1182.84 1496.63,1182.31 1496.49,1181.79 1496.34,1181.27 1496.17,1180.75 1496,1180.23 1495.81,1179.72 1495.6,1179.22 1495.39,1178.72 1495.16,1178.22 1494.93,1177.73 1494.67,1177.25 1494.41,1176.78 1494.14,1176.31 1493.85,1175.84 1493.56,1175.39 1493.25,1174.94 1492.93,1174.5 1492.6,1174.06 1492.26,1173.64 1491.91,1173.22 1491.55,1172.82 1491.18,1172.42 1490.8,1172.03 1490.41,1171.65 1490.01,1171.28 1489.61,1170.92 1489.19,1170.57 1488.76,1170.23 1488.33,1169.9 1487.89,1169.58 1487.44,1169.27 1486.99,1168.98 1486.52,1168.69 1486.05,1168.42 1485.58,1168.15 1485.09,1167.9 1484.6,1167.66 1484.11,1167.44 1483.61,1167.22 1483.11,1167.02 1482.6,1166.83 1482.08,1166.66 1481.56,1166.49 1481.04,1166.34 1480.51,1166.2 1479.98,1166.08 1479.45,1165.96 1478.92,1165.86 1478.38,1165.78 1477.84,1165.7 1477.3,1165.64 1476.76,1165.6 1476.22,1165.56 1475.67,1165.54 1475.13,1165.54 1474.59,1165.54 1474.04,1165.56 1473.5,1165.6 1472.96,1165.64 1472.42,1165.7 1471.88,1165.78 1471.34,1165.86 1470.81,1165.96 1470.27,1166.08 1469.74,1166.2 1469.22,1166.34 1468.7,1166.49 1468.18,1166.66 1467.66,1166.83 1467.15,1167.02 1466.65,1167.22 1466.15,1167.44 1465.65,1167.66 1465.16,1167.9 1464.68,1168.15 1464.21,1168.42 1463.74,1168.69 1463.27,1168.98 1462.82,1169.27 1462.37,1169.58 1461.93,1169.9 1461.49,1170.23 1461.07,1170.57 1460.65,1170.92 1460.25,1171.28 1459.85,1171.65 1459.46,1172.03 1459.08,1172.42 1458.71,1172.82 1458.35,1173.22 1458,1173.64 1457.66,1174.06 1457.33,1174.5 1457.01,1174.94 1456.7,1175.39 1456.41,1175.84 1456.12,1176.31 1455.85,1176.78 1455.58,1177.25 1455.33,1177.73 1455.09,1178.22 1454.87,1178.72 1454.65,1179.22 1454.45,1179.72 1454.26,1180.23 1454.09,1180.75 1453.92,1181.27 1453.77,1181.79 1453.63,1182.31 1453.51,1182.84 1453.39,1183.38 1453.29,1183.91 1453.21,1184.45 1453.13,1184.99 1453.07,1185.53 1453.03,1186.07 1452.99,1186.61 1452.97,1187.16 1452.97,1187.7 1452.97,1188.24 1452.99,1188.79 1453.03,1189.33 1453.07,1189.87 1453.13,1190.41 1453.21,1190.95 1453.29,1191.49 1453.39,1192.02 1453.51,1192.56 1453.63,1193.08 1453.77,1193.61 1453.92,1194.13 1454.09,1194.65 1454.26,1195.17 1454.45,1195.68 1454.65,1196.18 1454.87,1196.68 1455.09,1197.18 1455.33,1197.66 1455.58,1198.15 1455.85,1198.62 1456.12,1199.09 1456.41,1199.56 1456.7,1200.01 1457.01,1200.46 1457.33,1200.9 1457.66,1201.33 1458,1201.76 1458.35,1202.18 1458.71,1202.58 1459.08,1202.98 1459.46,1203.37 1459.85,1203.75 1460.25,1204.12 1460.65,1204.48 1461.07,1204.83 1461.49,1205.17 1461.93,1205.5 1462.37,1205.82 1462.82,1206.13 1463.27,1206.42 1463.74,1206.71 1464.21,1206.98 1464.68,1207.24 1465.16,1207.5 1465.65,1207.73 1466.15,1207.96 1466.65,1208.17 1467.15,1208.38 1467.66,1208.57 1468.18,1208.74 1468.7,1208.91 1469.22,1209.06 1469.74,1209.2 1470.27,1209.32 1470.81,1209.44 1471.34,1209.54 1471.88,1209.62 1472.42,1209.7 1472.96,1209.76 1473.5,1209.8 1474.04,1209.84 1474.59,1209.86 1475.13,1209.86 1475.67,1209.86 1476.22,1209.84 1476.76,1209.8 1477.3,1209.76 1477.84,1209.7 1478.38,1209.62 1478.92,1209.54 1479.45,1209.44 1479.98,1209.32 1480.51,1209.2 1481.04,1209.06 1481.56,1208.91 1482.08,1208.74 1482.6,1208.57 1483.11,1208.38 1483.61,1208.17 1484.11,1207.96 1484.6,1207.73 1485.09,1207.5 1485.58,1207.24 1486.05,1206.98 1486.52,1206.71 1486.99,1206.42 1487.44,1206.13 1487.89,1205.82 1488.33,1205.5 1488.76,1205.17 1489.19,1204.83 1489.61,1204.48 1490.01,1204.12 1490.41,1203.75 1490.8,1203.37 1491.18,1202.98 1491.55,1202.58 1491.91,1202.18 1492.26,1201.76 1492.6,1201.33 1492.93,1200.9 1493.25,1200.46 1493.56,1200.01 1493.85,1199.56 1494.14,1199.09 1494.41,1198.62 1494.67,1198.15 1494.93,1197.66 1495.16,1197.18 1495.39,1196.68 1495.6,1196.18 1495.81,1195.68 1496,1195.17 1496.17,1194.65 1496.34,1194.13 1496.49,1193.61 1496.63,1193.08 1496.75,1192.56 1496.87,1192.02 1496.97,1191.49 1497.05,1190.95 1497.12,1190.41 1497.18,1189.87 1497.23,1189.33 1497.26,1188.79 1497.28,1188.24 1497.29,1187.7 " />
<polyline fill="none" vector-effect="none" points="1257.59,601.629 1257.59,725.379 " />
<polyline fill="none" vector-effect="none" points="557.78,486.897 557.78,1249.57 " />
<polyline fill="none" vector-effect="none" points="1381.34,725.379 1257.59,725.379 " />
<polyline fill="none" vector-effect="none" points="1381.34,601.629 1381.34,725.379 " />
<polyline fill="none" vector-effect="none" points="1381.34,601.629 1257.59,601.629 " />
<polyline fill="none" vector-effect="none" points="585.905,458.772 585.214,458.78 584.525,458.806 583.836,458.848 583.148,458.907 582.462,458.983 581.778,459.076 581.096,459.186 580.418,459.312 579.742,459.455 579.071,459.615 578.403,459.791 577.74,459.983 577.082,460.191 576.43,460.416 575.783,460.656 575.142,460.913 574.507,461.185 573.88,461.472 573.259,461.775 572.647,462.093 572.042,462.426 571.446,462.773 570.858,463.135 570.279,463.512 569.71,463.902 569.151,464.307 568.601,464.725 568.062,465.156 567.534,465.6 567.017,466.058 566.511,466.527 566.017,467.009 565.535,467.503 565.065,468.009 564.608,468.526 564.164,469.054 563.732,469.593 563.314,470.143 562.91,470.702 562.52,471.271 562.143,471.85 561.781,472.438 561.433,473.034 561.101,473.639 560.783,474.251 560.48,474.872 560.193,475.499 559.921,476.134 559.664,476.775 559.424,477.422 559.199,478.074 558.991,478.733 558.798,479.395 558.623,480.063 558.463,480.735 558.32,481.41 558.194,482.088 558.084,482.77 557.991,483.454 557.915,484.14 557.856,484.828 557.814,485.517 557.788,486.207 557.78,486.897 " />
<polyline fill="none" vector-effect="none" points="585.905,458.772 1545.24,458.772 " />
<polyline fill="none" vector-effect="none" points="1573.37,486.897 1573.36,486.207 1573.33,485.517 1573.29,484.828 1573.23,484.14 1573.16,483.454 1573.06,482.77 1572.95,482.088 1572.83,481.41 1572.68,480.735 1572.52,480.063 1572.35,479.395 1572.16,478.733 1571.95,478.074 1571.72,477.422 1571.48,476.775 1571.23,476.134 1570.95,475.499 1570.67,474.872 1570.36,474.251 1570.05,473.639 1569.71,473.034 1569.37,472.438 1569,471.85 1568.63,471.271 1568.24,470.702 1567.83,470.143 1567.41,469.593 1566.98,469.054 1566.54,468.526 1566.08,468.009 1565.61,467.503 1565.13,467.009 1564.64,466.527 1564.13,466.058 1563.61,465.6 1563.08,465.156 1562.55,464.725 1562,464.307 1561.44,463.902 1560.87,463.512 1560.29,463.135 1559.7,462.773 1559.1,462.426 1558.5,462.093 1557.89,461.775 1557.27,461.472 1556.64,461.185 1556,460.913 1555.36,460.656 1554.72,460.416 1554.06,460.191 1553.41,459.983 1552.74,459.791 1552.08,459.615 1551.4,459.455 1550.73,459.312 1550.05,459.186 1549.37,459.076 1548.68,458.983 1548,458.907 1547.31,458.848 1546.62,458.806 1545.93,458.78 1545.24,458.772 " />
<polyline fill="none" vector-effect="none" points="1573.37,486.897 1573.37,1249.57 " />
<polyline fill="none" vector-effect="none" points="1545.24,1277.7 1545.93,1277.69 1546.62,1277.67 1547.31,1277.62 1548,1277.56 1548.68,1277.49 1549.37,1277.39 1550.05,1277.29 1550.73,1277.16 1551.4,1277.02 1552.08,1276.86 1552.74,1276.68 1553.41,1276.49 1554.06,1276.28 1554.72,1276.06 1555.36,1275.81 1556,1275.56 1556.64,1275.29 1557.27,1275 1557.89,1274.7 1558.5,1274.38 1559.1,1274.05 1559.7,1273.7 1560.29,1273.34 1560.87,1272.96 1561.44,1272.57 1562,1272.16 1562.55,1271.75 1563.08,1271.32 1563.61,1270.87 1564.13,1270.41 1564.64,1269.94 1565.13,1269.46 1565.61,1268.97 1566.08,1268.46 1566.54,1267.94 1566.98,1267.42 1567.41,1266.88 1567.83,1266.33 1568.24,1265.77 1568.63,1265.2 1569,1264.62 1569.37,1264.03 1569.71,1263.44 1570.05,1262.83 1570.36,1262.22 1570.67,1261.6 1570.95,1260.97 1571.23,1260.34 1571.48,1259.7 1571.72,1259.05 1571.95,1258.4 1572.16,1257.74 1572.35,1257.08 1572.52,1256.41 1572.68,1255.74 1572.83,1255.06 1572.95,1254.38 1573.06,1253.7 1573.16,1253.02 1573.23,1252.33 1573.29,1251.64 1573.33,1250.95 1573.36,1250.26 1573.37,1249.57 " />
<polyline fill="none" vector-effect="none" points="585.905,1277.7 1545.24,1277.7 " />
<polyline fill="none" vector-effect="none" points="557.78,1249.57 557.788,1250.26 557.814,1250.95 557.856,1251.64 557.915,1252.33 557.991,1253.02 558.084,1253.7 558.194,1254.38 558.32,1255.06 558.463,1255.74 558.623,1256.41 558.798,1257.08 558.991,1257.74 559.199,1258.4 559.424,1259.05 559.664,1259.7 559.921,1260.34 560.193,1260.97 560.48,1261.6 560.783,1262.22 561.101,1262.83 561.433,1263.44 561.781,1264.03 562.143,1264.62 562.52,1265.2 562.91,1265.77 563.314,1266.33 563.732,1266.88 564.164,1267.42 564.608,1267.94 565.065,1268.46 565.535,1268.97 566.017,1269.46 566.511,1269.94 567.017,1270.41 567.534,1270.87 568.062,1271.32 568.601,1271.75 569.151,1272.16 569.71,1272.57 570.279,1272.96 570.858,1273.34 571.446,1273.7 572.042,1274.05 572.647,1274.38 573.259,1274.7 573.88,1275 574.507,1275.29 575.142,1275.56 575.783,1275.81 576.43,1276.06 577.082,1276.28 577.74,1276.49 578.403,1276.68 579.071,1276.86 579.742,1277.02 580.418,1277.16 581.096,1277.29 581.778,1277.39 582.462,1277.49 583.148,1277.56 583.836,1277.62 584.525,1277.67 585.214,1277.69 585.905,1277.7 " />
</g>

<g fill="#000000" fill-opacity="1" stroke="#000000" stroke-opacity="1" stroke-width="1" stroke-linecap="round" stroke-linejoin="bevel" transform="matrix(1,0,0,1,0,0)"
font-family="Arial" font-size="12" font-weight="400" font-style="normal" 
>
</g>

<g fill="#000000" fill-opacity="1" stroke="none" transform="matrix(1,0,0,1,0,0)"
font-family="Arial" font-size="12" font-weight="400" font-style="normal" 
>
<path vector-effect="none" fill-rule="evenodd" d="M843.153,84.2759 L843.153,78.2432 L815.969,78.2432 L815.969,77.9489 L827.189,66.8767 L830.005,64.0742 L832.385,61.5889 L834.327,59.4209 L835.833,57.5702 L838.086,54.186 L839.696,50.8753 L840.661,47.5095 L840.983,44.0334 L840.707,40.8975 L839.879,38.111 L838.5,35.674 L836.569,33.5865 L834.169,31.9128 L831.382,30.7173 L828.237,29.9724 L824.687,29.7241 L820.292,30.1196 L816.08,31.3059 L812.052,33.283 L808.208,36.0511 L811.739,40.502 L813.548,39.1617 L815.261,38.0467 L816.877,37.1569 L818.397,36.4925 L821.459,35.6649 L824.687,35.389 L826.775,35.5453 L828.623,36.0143 L830.242,36.75 L831.64,37.78 L832.734,39.1042 L833.516,40.6492 L834.012,42.424 L834.178,44.438 L833.92,47.3164 L833.148,49.9925 L831.888,52.6134 L830.095,55.3263 L828.796,56.9356 L826.959,59.0048 L824.584,61.5337 L821.671,64.5225 L807.582,78.7582 L807.582,84.2759 L843.153,84.2759"/>
</g>

<g fill="#000000" fill-opacity="1" stroke="#000000" stroke-opacity="1" stroke-width="1" stroke-linecap="round" stroke-linejoin="bevel" transform="matrix(1,0,0,1,0,0)"
font-family="Arial" font-size="12" font-weight="400" font-style="normal" 
>
</g>

<g fill="#000000" fill-opacity="1" stroke="none" transform="matrix(1,0,0,1,0,0)"
font-family="Arial" font-size="12" font-weight="400" font-style="normal" 
>
<path vector-effect="none" fill-rule="evenodd" d="M2485.39,84 L2485.39,30.2207 L2479.91,30.2207 L2465.34,41.5136 L2468.8,45.9646 L2473.08,42.4516 L2477,39.1962 L2479.21,37.1362 L2478.99,41.5872 L2478.92,46.406 L2478.92,84 L2485.39,84"/>
</g>

<g fill="#000000" fill-opacity="1" stroke="#000000" stroke-opacity="1" stroke-width="1" stroke-linecap="round" stroke-linejoin="bevel" transform="matrix(1,0,0,1,0,0)"
font-family="Arial" font-size="12" font-weight="400" font-style="normal" 
>
</g>

<g fill="none" stroke="#000000" stroke-opacity="1" stroke-width="1" stroke-linecap="square" stroke-linejoin="bevel" transform="matrix(1,0,0,1,0,0)"
font-family="Arial" font-size="12" font-weight="400" font-style="normal" 
>
</g>
</g>
</svg>
